<?xml version="1.0" encoding="UTF-8" standalone="no"?>
<!-- Generator: Adobe Illustrator 22.1.0, SVG Export Plug-In . SVG Version: 6.00 Build 0)  -->

<svg
   xmlns:dc="http://purl.org/dc/elements/1.1/"
   xmlns:cc="http://creativecommons.org/ns#"
   xmlns:rdf="http://www.w3.org/1999/02/22-rdf-syntax-ns#"
   xmlns:svg="http://www.w3.org/2000/svg"
   xmlns="http://www.w3.org/2000/svg"
   xmlns:sodipodi="http://sodipodi.sourceforge.net/DTD/sodipodi-0.dtd"
   xmlns:inkscape="http://www.inkscape.org/namespaces/inkscape"
   version="1.1"
   id="Capa_2"
   x="0px"
   y="0px"
   viewBox="0 0 124.4 124.4"
   xml:space="preserve"
   sodipodi:docname="twitter_gray.svg"
   width="124.4"
   height="124.4"
   inkscape:version="0.92.3 (2405546, 2018-03-11)"><metadata
   id="metadata15"><rdf:RDF><cc:Work
       rdf:about=""><dc:format>image/svg+xml</dc:format><dc:type
         rdf:resource="http://purl.org/dc/dcmitype/StillImage" /></cc:Work></rdf:RDF></metadata><defs
   id="defs13" /><sodipodi:namedview
   pagecolor="#ffffff"
   bordercolor="#666666"
   borderopacity="1"
   objecttolerance="10"
   gridtolerance="10"
   guidetolerance="10"
   inkscape:pageopacity="0"
   inkscape:pageshadow="2"
   inkscape:window-width="640"
   inkscape:window-height="480"
   id="namedview11"
   showgrid="false"
   inkscape:zoom="0.72459316"
   inkscape:cx="62.200003"
   inkscape:cy="62.149994"
   inkscape:window-x="0"
   inkscape:window-y="27"
   inkscape:window-maximized="0"
   inkscape:current-layer="Capa_2" />
<style
   type="text/css"
   id="style2">
	.st0{fill:#808B9D;}
</style>
<g
   id="g8"
   transform="translate(-106.6,-100.6)">
	<path
   class="st0"
   d="m 153.6,183.3 c -4.1,-0.2 -7.6,-1.6 -10.5,-4.4 -1.9,-1.8 -3.3,-4 -4.1,-6.6 2.4,0.4 4.7,0.4 7,-0.3 -3.6,-0.9 -6.7,-2.7 -9,-5.6 -2.4,-2.9 -3.5,-6.3 -3.5,-10.1 2.2,1.2 4.6,1.9 7.1,2 -3.9,-2.8 -6.3,-6.5 -6.9,-11.3 -0.4,-3.5 0.3,-6.7 2,-9.8 8.5,10.1 19.3,15.6 32.5,16.5 -0.1,-0.6 -0.2,-1.2 -0.3,-1.7 -0.3,-2.7 0,-5.3 1.1,-7.8 2.1,-5 5.8,-8.2 11.1,-9.4 5.7,-1.3 10.7,0.3 14.8,4.4 0.1,0.1 0.2,0.2 0.4,0.1 3.4,-0.7 6.5,-1.9 9.5,-3.6 0.1,0 0.2,-0.1 0.3,-0.1 0,0.7 -1.5,3.5 -2.6,4.9 -1.2,1.5 -2.6,2.7 -4.2,3.7 3.1,-0.4 6,-1.2 8.9,-2.4 -0.1,0.2 -0.2,0.3 -0.2,0.3 -0.1,0.1 -0.1,0.2 -0.2,0.3 -1.6,2.3 -3.5,4.4 -5.7,6.2 -0.5,0.4 -1,0.8 -1.6,1.2 -0.1,0.1 -0.1,0.2 -0.1,0.3 0.1,2.5 0,5.1 -0.4,7.6 -0.6,4.4 -1.8,8.6 -3.6,12.7 -1.8,4 -4,7.6 -6.8,10.9 -3.5,4.2 -7.6,7.6 -12.4,10.2 -3.9,2.1 -8,3.6 -12.4,4.4 -3.8,0.7 -7.6,1 -11.5,0.8 -5.4,-0.3 -10.6,-1.5 -15.5,-3.6 -2.2,-0.9 -4.2,-2 -6.2,-3.3 -0.1,0 -0.1,-0.1 -0.2,-0.1 8.6,1 16.4,-1.1 23.2,-6.4 z"
   id="path4"
   inkscape:connector-curvature="0"
   style="fill:#808b9d" />
	<path
   class="st0"
   d="m 168.8,225 c -34.3,0 -62.2,-27.9 -62.2,-62.2 0,-34.3 27.9,-62.2 62.2,-62.2 34.3,0 62.2,27.9 62.2,62.2 0,34.3 -27.9,62.2 -62.2,62.2 z m 0,-118.3 c -31,0 -56.2,25.2 -56.2,56.2 0,31 25.2,56.2 56.2,56.2 31,0 56.2,-25.2 56.2,-56.2 0,-31 -25.2,-56.2 -56.2,-56.2 z"
   id="path6"
   inkscape:connector-curvature="0"
   style="fill:#808b9d" />
</g>
</svg>