<?xml version="1.0" encoding="utf-8"?>
<!-- Generator: Adobe Illustrator 22.1.0, SVG Export Plug-In . SVG Version: 6.00 Build 0)  -->
<svg version="1.1" id="prev_gris" xmlns="http://www.w3.org/2000/svg" xmlns:xlink="http://www.w3.org/1999/xlink" x="0px" y="0px"
	 viewBox="0 0 485 136.7" style="enable-background:new 0 0 485 136.7;" xml:space="preserve">
<style type="text/css">
	.st0{fill:#808B9D;}
</style>
<g>
	<path class="st0" d="M299,50.7c-1.1-2.3-3.6-3.6-5.9-3.6h-72c-0.2-0.7-0.7-1.4-0.9-2c-5-9-16.3-12.4-25.3-7.5
		c-4.1,2.3-7,5.6-8.6,9.5c-1.6,4.3-1.8,9,0,13.5c0.2,0.7,0.7,1.4,0.9,2c5,9,16.3,12.4,25.3,7.5c4.1-2.3,7-5.6,8.6-9.5h71.8
		c0.2,0,0.2,0,0.5,0c1.1,0,2-0.2,3.2-0.9C299.7,58.1,300.9,53.8,299,50.7z M203.8,60.6L203.8,60.6c-2.5,0-5-1.4-6.1-3.6
		c-1.8-3.4-0.5-7.5,2.7-9.3c0.9-0.5,2-0.9,3.2-0.9h0.2c2.5,0,4.7,1.4,5.9,3.6c1.8,3.4,0.5,7.5-2.7,9.3
		C206,60.4,204.9,60.6,203.8,60.6z"/>
	<g>
		<path class="st0" d="M217.9,80h4.3c2.4,0,4.1,0.1,5,0.3c1.2,0.3,2.2,0.9,3,1.9c0.8,0.9,1.2,2.1,1.2,3.5c0,1.4-0.4,2.6-1.1,3.5
			c-0.8,0.9-1.8,1.6-3.1,1.9c-1,0.2-2.8,0.4-5.5,0.4h-1.5v10h-2.1V80z M220.1,82.1v7.3l3.6,0c1.5,0,2.5-0.1,3.2-0.4
			c0.7-0.3,1.2-0.7,1.6-1.3c0.4-0.6,0.6-1.3,0.6-2c0-0.7-0.2-1.4-0.6-2c-0.4-0.6-0.9-1-1.5-1.3c-0.6-0.3-1.7-0.4-3.1-0.4H220.1z"/>
		<path class="st0" d="M235.7,80h4.3c2.4,0,4,0.1,4.8,0.3c1.3,0.3,2.3,0.9,3.1,1.9c0.8,1,1.2,2.1,1.2,3.5c0,1.2-0.3,2.2-0.8,3.1
			c-0.5,0.9-1.3,1.6-2.4,2c-1,0.5-2.4,0.7-4.2,0.7l7.7,10h-2.7l-7.7-10h-1.2v10h-2.1V80z M237.9,82.1v7.3l3.7,0
			c1.4,0,2.5-0.1,3.2-0.4c0.7-0.3,1.2-0.7,1.6-1.3s0.6-1.3,0.6-2c0-0.7-0.2-1.4-0.6-2c-0.4-0.6-0.9-1-1.5-1.3s-1.7-0.4-3.2-0.4
			H237.9z"/>
		<path class="st0" d="M253.7,80H266v2.1h-10.1v6.7h10.1v2.1h-10.1v8.4h10.1v2.1h-12.2V80z"/>
		<path class="st0" d="M268.1,80h2.3l7.1,16.6l7.2-16.6h2.3l-9.3,21.4h-0.5L268.1,80z"/>
	</g>
</g>
</svg>
