<?xml version="1.0" encoding="utf-8"?>
<!-- Generator: Adobe Illustrator 22.1.0, SVG Export Plug-In . SVG Version: 6.00 Build 0)  -->
<svg version="1.1" id="next_blanco" xmlns="http://www.w3.org/2000/svg" xmlns:xlink="http://www.w3.org/1999/xlink" x="0px"
	 y="0px" viewBox="0 0 485 136.7" style="enable-background:new 0 0 485 136.7;" xml:space="preserve">
<style type="text/css">
	.st0{fill:#F0F1F3;}
</style>
<g>
	<path class="st0" d="M188.5,59.7c0.9,0.5,2,0.9,3.2,0.9c0.2,0,0.2,0,0.5,0h71.8c1.6,3.8,4.5,7.5,8.6,9.5c9,5,20.3,1.6,25.3-7.5
		c0.5-0.7,0.7-1.4,0.9-2c1.8-4.5,1.6-9.3,0-13.5c-1.6-3.8-4.5-7.5-8.6-9.5c-9-5-20.3-1.6-25.3,7.5c-0.5,0.7-0.7,1.4-0.9,2h-72
		c-2.5,0-4.7,1.4-5.9,3.6C184,53.8,185.3,57.9,188.5,59.7z M277.9,59.7c-3.4-1.8-4.5-5.9-2.7-9.3c1.1-2.3,3.4-3.6,5.9-3.6h0.2
		c1.1,0,2.3,0.2,3.2,0.9c3.4,1.8,4.5,5.9,2.7,9.3c-1.1,2.3-3.6,3.6-5.9,3.6c0,0,0,0-0.2,0C280.2,60.4,279,60.2,277.9,59.7z"/>
	<g>
		<path class="st0" d="M198.8,101.4V80h0.5l14.3,16.4V80h2.1v21.4h-0.5L201,85.2v16.2H198.8z"/>
		<path class="st0" d="M220.9,80h12.3v2.1h-10.1v6.7h10.1v2.1h-10.1v8.4h10.1v2.1h-12.2V80z"/>
		<path class="st0" d="M235.8,80h2.5l5.1,8.3l5.2-8.3h2.5l-6.4,10.4l6.8,11.1H249l-5.6-9l-5.6,9h-2.5l6.9-11.1L235.8,80z"/>
		<path class="st0" d="M253,82.1V80h11.7v2.1h-4.8v19.3h-2.2V82.1H253z"/>
	</g>
</g>
</svg>
