<?xml version="1.0" encoding="utf-8"?>
<!-- Generator: Adobe Illustrator 22.1.0, SVG Export Plug-In . SVG Version: 6.00 Build 0)  -->
<svg version="1.1" id="submit_on" xmlns="http://www.w3.org/2000/svg" xmlns:xlink="http://www.w3.org/1999/xlink" x="0px" y="0px"
	 viewBox="0 0 337.6 325.7" style="enable-background:new 0 0 337.6 325.7;" xml:space="preserve">
<style type="text/css">
	.st0{display:none;}
	.st1{display:inline;}
	.st2{fill:#152F4A;}
	.st3{fill:#808B9D;}
	.st4{fill:#F0F1F3;}
	.st5{font-family:'CenturyGothic';}
	.st6{font-size:12px;}
</style>
<g id="original_v" class="st0">
	<g class="st1">
		<g>
			<g>
				<g>
					<g>
						<g>
							<g>
								<path class="st2" d="M121.9,174.1c0.7,0,1.3-0.4,1.6-0.9l9-16.6c0.2,0,0.4,0,0.6,0c2.7,0,4.9-2.2,4.9-4.9
									c0-1.2-0.4-2.3-1.1-3.1c-0.8-0.9-1.9-1.5-3.1-1.7c-0.2,0-0.4,0-0.6,0c-2.7,0-4.9,2.2-4.9,4.9c0,1.2,0.4,2.3,1.1,3.1
									l-8.9,16.6v0.1c-0.1,0.2-0.2,0.5-0.2,0.8C120.1,173.3,120.9,174.1,121.9,174.1z M131.5,150.9L131.5,150.9
									c0.3-0.6,0.9-1,1.6-1c1,0,1.8,0.8,1.8,1.8c0,0.3-0.1,0.6-0.2,0.8l0,0c-0.3,0.5-0.9,0.9-1.5,0.9c-1,0-1.8-0.8-1.8-1.8
									C131.3,151.4,131.3,151.2,131.5,150.9z"/>
								<path class="st2" d="M180.4,141.5L180.4,141.5L169,120.4c0.2-0.5,0.2-1,0.2-1.5c0-2.7-2.2-4.9-4.9-4.9s-4.9,2.2-4.9,4.9
									c0,0.6,0.1,1.1,0.3,1.7l-11.9,22l-1.9,3.6l-16.4,30.4c-0.2,0-0.5-0.1-0.7-0.1c-2.1,0-3.9,1.3-4.6,3.2h-15.1
									c-0.4,0-0.7-0.3-0.7-0.7c0-0.1,0-0.2,0.1-0.3l2-3.7l0,0l17.3-32c0.2,0,0.4,0,0.6,0c2.7,0,4.9-2.2,4.9-4.9
									c0-1.2-0.4-2.3-1.2-3.1c-0.8-0.9-1.9-1.5-3.1-1.7c-0.2,0-0.4,0-0.6,0c-2.7,0-4.9,2.2-4.9,4.9c0,1.2,0.4,2.3,1.2,3.1
									l-19,35.3l0,0c0,0,0,0,0,0.1l-0.3,0.6c0,0,0,0,0,0.1c-0.2,0.5-0.3,1.1-0.3,1.6c0,2.4,1.9,4.3,4.3,4.3h15.2
									c0.7,1.7,2.5,3,4.5,3c2.7,0,4.9-2.2,4.9-4.9c0-1.1-0.4-2.2-1-3l17.4-32.2h27.5c1.7,0,3.2-1.4,3.2-3.2
									C180.7,142.4,180.6,142,180.4,141.5z M126.8,137.3l0.1-0.2l0,0c0.3-0.5,0.9-0.8,1.5-0.8c1,0,1.8,0.8,1.8,1.8
									c0,0.3-0.1,0.6-0.2,0.8c0,0.1-0.1,0.1-0.1,0.2c-0.3,0.5-0.9,0.8-1.5,0.8c-1,0-1.8-0.8-1.8-1.8
									C126.6,137.8,126.6,137.6,126.8,137.3z M128.8,183.1c-1,0-1.8-0.8-1.8-1.8s0.8-1.8,1.8-1.8s1.8,0.8,1.8,1.8
									S129.8,183.1,128.8,183.1z M164.3,117.1c1,0,1.8,0.8,1.8,1.8c0,0.8-0.5,1.4-1.1,1.7c-0.2,0.1-0.4,0.1-0.7,0.1
									c-0.2,0-0.4,0-0.5-0.1c-0.7-0.2-1.2-0.9-1.2-1.7C162.6,117.9,163.4,117.1,164.3,117.1z M176.4,142.5H152l9.9-18.3l0,0
									l0.5-0.9c0.6,0.3,1.3,0.4,2,0.4c0.8,0,1.5-0.2,2.1-0.5l0.5,1l8.7,16.2l0.9,1.7v0.1C176.7,142.4,176.5,142.5,176.4,142.5z"/>
								<path class="st2" d="M223.8,176.6c-0.2,0-0.4,0-0.6,0l-44.8-83.1l-2-3.8l0,0l-4-7.3l-2-3.8l0,0l-1.5-2.8
									c0.2-0.6,0.3-1.2,0.3-1.8c0-2.7-2.2-4.9-4.9-4.9s-4.9,2.2-4.9,4.9c0,0.7,0.1,1.3,0.4,1.9l-23.2,43l0,0l-0.1,0.2
									c-0.1,0.2-0.2,0.5-0.2,0.8c0,1,0.8,1.8,1.8,1.8c0.7,0,1.3-0.4,1.6-0.9l22.1-40.9l0.7-1.3c0.6,0.2,1.2,0.3,1.8,0.3
									c0.7,0,1.3-0.1,1.9-0.4l0.7,1.4l1.4,2.6l2,3.8l4,7.3l2,3.8l43.7,81c-0.3,0.4-0.6,0.9-0.8,1.4h-6.4l-6.3-11.6
									c0.7-0.8,1.1-1.9,1.1-3.1c0-2.7-2.2-4.9-4.9-4.9c-0.2,0-0.4,0-0.6,0l-29.9-55.5l-2-3.8l-2.3-4.2c-0.7-1.3-2.1-2.2-3.7-2.2
									c-1.6,0-3,0.9-3.7,2.2c0,0,0,0.1-0.1,0.1l-2.2,4.1l-2,3.8l-4.3,8c-0.2,0-0.4,0-0.6,0c-2.7,0-4.9,2.2-4.9,4.9
									c0,1.2,0.4,2.3,1.2,3.1c0.8,0.9,1.9,1.5,3.1,1.7c0.2,0,0.4,0,0.6,0c2.7,0,4.9-2.2,4.9-4.9c0-1.2-0.4-2.3-1.1-3.1l3.2-6
									l2-3.8l1.4-2.6l2-3.6v-0.1c0.1-0.2,0.3-0.3,0.6-0.3s0.5,0.1,0.6,0.4l0,0l2,3.7l1.4,2.6l2,3.8l28.8,53.4
									c-0.7,0.8-1.1,1.9-1.1,3.1c0,2.7,2.2,4.9,4.9,4.9c0.2,0,0.4,0,0.6,0l5.4,9.9h-7.4l0,0c-0.3,0-0.7-0.2-0.8-0.5v-0.1l-2-3.8
									l-7.6-14.1c0.6-0.8,0.9-1.8,0.9-2.8c0-2.7-2.2-4.9-4.9-4.9c-2,0-3.7,1.2-4.4,2.9h-18.3c-1,0-1.8,0.8-1.8,1.8
									s0.8,1.8,1.8,1.8h18.2c0.7,1.9,2.5,3.3,4.6,3.3c0.3,0,0.6,0,1-0.1l8.9,16.5l0.6,1.1c0,0,0,0,0,0.1c0,0,0,0,0,0.1l0,0
									c0.8,1.4,2.2,2.3,3.9,2.3h17.8c0.7,1.8,2.5,3.1,4.5,3.1c2.7,0,4.9-2.2,4.9-4.9S226.5,176.6,223.8,176.6z M164.3,75.8
									c-1,0-1.8-0.8-1.8-1.8c0-0.8,0.6-1.5,1.3-1.7c0.1,0,0.3-0.1,0.4-0.1c0.1,0,0.2,0,0.4,0c0.8,0.2,1.4,0.9,1.4,1.8
									C166.1,75,165.3,75.8,164.3,75.8z M153.1,118.3C153.1,118.3,153,118.3,153.1,118.3c-0.3,0.6-0.9,1-1.6,1
									c-1,0-1.8-0.8-1.8-1.8c0-0.3,0.1-0.6,0.2-0.8l0.1-0.1c0,0,0,0,0-0.1c0.3-0.5,0.9-0.8,1.5-0.8c1,0,1.8,0.8,1.8,1.8
									C153.3,117.8,153.2,118,153.1,118.3z M202.9,166.7c-0.6,0-1.2-0.3-1.5-0.8c0-0.1-0.1-0.1-0.1-0.2c-0.1-0.2-0.2-0.5-0.2-0.8
									c0-1,0.8-1.8,1.8-1.8c0.7,0,1.3,0.4,1.6,0.9c0.1,0.3,0.2,0.5,0.2,0.9C204.7,165.9,203.9,166.7,202.9,166.7z M187,160.2
									c-0.3,0-0.5-0.1-0.8-0.2c0,0-0.1,0-0.1-0.1c-0.6-0.3-0.9-0.9-0.9-1.6c0-1,0.8-1.8,1.8-1.8s1.8,0.8,1.8,1.8
									C188.8,159.4,188,160.2,187,160.2z M223.8,183.2c-1,0-1.8-0.8-1.8-1.8s0.8-1.8,1.8-1.8c0.6,0,1.2,0.3,1.5,0.8
									c0,0.1,0.1,0.1,0.1,0.2c0.1,0.2,0.2,0.5,0.2,0.8C225.6,182.4,224.8,183.2,223.8,183.2z"/>
								<path class="st3" d="M186.2,160c0,0,0.1,0,0.1,0.1L186.2,160L186.2,160z M133,150c-0.7,0-1.2,0.4-1.5,0.9l0,0
									c-0.1,0.2-0.2,0.5-0.2,0.8c0,1,0.8,1.8,1.8,1.8c0.7,0,1.3-0.4,1.6-0.9l0,0c0.1-0.2,0.2-0.5,0.2-0.8
									C134.8,150.8,134,150,133,150z M163.8,120.6c0.2,0.1,0.3,0.1,0.5,0.1s0.4,0,0.7-0.1c0.7-0.3,1.1-0.9,1.1-1.7
									c0-1-0.8-1.8-1.8-1.8s-1.8,0.8-1.8,1.8C162.6,119.7,163.1,120.4,163.8,120.6z M175.7,140.4l-8.7-16.2l-0.5-1
									c-0.6,0.3-1.4,0.5-2.1,0.5c-0.7,0-1.4-0.2-2-0.4l-0.5,0.9l0,0l-9.9,18.3h24.4c0.2,0,0.3-0.1,0.3-0.3c0-0.1,0-0.1,0-0.1
									L175.7,140.4z M128.4,139.9c0.6,0,1.2-0.3,1.5-0.8c0-0.1,0.1-0.1,0.1-0.2c0.1-0.2,0.2-0.5,0.2-0.8c0-1-0.8-1.8-1.8-1.8
									c-0.6,0-1.2,0.3-1.5,0.8l0,0l-0.1,0.2c-0.1,0.2-0.2,0.5-0.2,0.8C126.6,139.1,127.4,139.9,128.4,139.9z M128.8,179.5
									c-1,0-1.8,0.8-1.8,1.8s0.8,1.8,1.8,1.8s1.8-0.8,1.8-1.8S129.8,179.5,128.8,179.5z M164.3,75.8c1,0,1.8-0.8,1.8-1.8
									c0-0.9-0.6-1.6-1.4-1.8l0,0c-0.1,0-0.2,0-0.3,0s-0.3,0-0.4,0.1l0,0c-0.8,0.2-1.3,0.9-1.3,1.7
									C162.6,75,163.3,75.8,164.3,75.8z M153,118.3C153,118.3,153.1,118.3,153,118.3c0.2-0.3,0.2-0.6,0.2-0.9c0-1-0.8-1.8-1.8-1.8
									c-0.6,0-1.2,0.3-1.5,0.8c0,0,0,0,0,0.1l-0.1,0.1c-0.1,0.2-0.2,0.5-0.2,0.8c0,1,0.8,1.8,1.8,1.8
									C152.1,119.2,152.7,118.9,153,118.3z M202.9,163.1c-1,0-1.8,0.8-1.8,1.8c0,0.3,0.1,0.6,0.2,0.8c0,0.1,0.1,0.1,0.1,0.2
									c0.3,0.5,0.9,0.8,1.5,0.8c1,0,1.8-0.8,1.8-1.8c0-0.3-0.1-0.6-0.2-0.9C204.2,163.5,203.6,163.1,202.9,163.1z M187,156.6
									c-1,0-1.8,0.8-1.8,1.8c0,0.7,0.4,1.2,0.9,1.6h0.1v0.1c0.2,0.1,0.5,0.2,0.8,0.2c1,0,1.8-0.8,1.8-1.8
									C188.8,157.4,188,156.6,187,156.6z M225.3,180.4c-0.3-0.5-0.9-0.8-1.5-0.8c-1,0-1.8,0.8-1.8,1.8s0.8,1.8,1.8,1.8
									s1.8-0.8,1.8-1.8c0-0.3-0.1-0.6-0.2-0.8C225.4,180.6,225.3,180.5,225.3,180.4z M231.4,183.2L231.4,183.2c0.1,0,0.1,0,0.2,0
									c0.1,0,0.1,0,0.2,0l0,0H231.4z"/>
							</g>
							<g>
								<path class="st2" d="M67.7,208h4l7.9,20.5h-4.1l-1.6-4.2h-8.4l-1.7,4.2h-4.1L67.7,208z M69.7,213.4l-2.8,7h5.5L69.7,213.4z"
									/>
								<path class="st2" d="M91.6,215.4l-2.4,2.4c-1-0.9-1.8-1.4-2.6-1.4c-0.4,0-0.8,0.1-1,0.3s-0.4,0.4-0.4,0.7
									c0,0.2,0.1,0.4,0.2,0.6c0.2,0.2,0.5,0.4,1.1,0.7l1.4,0.7c1.5,0.7,2.5,1.5,3,2.2c0.5,0.8,0.8,1.6,0.8,2.6
									c0,1.3-0.5,2.5-1.5,3.4s-2.3,1.4-4,1.4c-2.2,0-4-0.9-5.3-2.6l2.3-2.6c0.4,0.5,1,0.9,1.6,1.3s1.1,0.5,1.6,0.5
									s0.9-0.1,1.2-0.4c0.3-0.2,0.5-0.5,0.5-0.8c0-0.6-0.6-1.2-1.7-1.7l-1.3-0.6c-2.5-1.2-3.7-2.8-3.7-4.6c0-1.2,0.5-2.2,1.4-3.1
									c0.9-0.9,2.1-1.3,3.5-1.3c1,0,1.9,0.2,2.8,0.6C90.2,214,91,214.6,91.6,215.4z"/>
								<path class="st2" d="M105.6,207.5h3.8v21h-3.8v-1.6c-0.7,0.7-1.5,1.2-2.2,1.5s-1.6,0.5-2.4,0.5c-2,0-3.7-0.8-5.1-2.3
									s-2.1-3.4-2.1-5.7s0.7-4.3,2.1-5.8s3.1-2.2,5-2.2c0.9,0,1.8,0.2,2.6,0.5c0.8,0.3,1.5,0.9,2.2,1.5L105.6,207.5L105.6,207.5z
									 M101.6,216.4c-1.2,0-2.2,0.4-2.9,1.2c-0.8,0.8-1.2,1.9-1.2,3.2s0.4,2.4,1.2,3.2c0.8,0.8,1.8,1.3,2.9,1.3
									c1.2,0,2.2-0.4,3-1.2s1.2-1.9,1.2-3.3c0-1.3-0.4-2.4-1.2-3.2C103.8,216.9,102.8,216.4,101.6,216.4z"/>
								<path class="st2" d="M112.7,213.3h3.3v1.9c0.4-0.8,0.8-1.3,1.4-1.7s1.2-0.6,1.9-0.6c0.5,0,1,0.1,1.5,0.4l-1.2,3.3
									c-0.4-0.2-0.8-0.3-1.1-0.3c-0.6,0-1.1,0.4-1.5,1.1c-0.4,0.7-0.6,2.1-0.6,4.3v0.7v6.1h-3.8L112.7,213.3L112.7,213.3z"/>
								<path class="st2" d="M122.6,213.3h3.8v7.3c0,1.4,0.1,2.4,0.3,3c0.2,0.6,0.5,1,0.9,1.3c0.4,0.3,1,0.5,1.6,0.5
									s1.2-0.2,1.6-0.5c0.4-0.3,0.8-0.7,1-1.3c0.2-0.4,0.2-1.4,0.2-2.8v-7.4h3.8v6.4c0,2.6-0.2,4.5-0.6,5.4
									c-0.5,1.2-1.3,2.1-2.3,2.7c-1,0.6-2.3,1-3.8,1c-1.7,0-3-0.4-4-1.1c-1-0.7-1.7-1.8-2.2-3.1c-0.3-0.9-0.4-2.6-0.4-5
									L122.6,213.3L122.6,213.3z M129.9,205.1h4.5l-5.1,5.5h-2.7L129.9,205.1z"/>
								<path class="st2" d="M143.3,207.5v7.5c0.7-0.7,1.4-1.2,2.2-1.5s1.7-0.5,2.6-0.5c2,0,3.7,0.7,5,2.2c1.4,1.5,2.1,3.4,2.1,5.8
									c0,2.3-0.7,4.1-2.1,5.7c-1.4,1.5-3.1,2.3-5.1,2.3c-0.9,0-1.7-0.2-2.4-0.5c-0.8-0.3-1.5-0.8-2.2-1.5v1.6h-3.8v-21h3.7V207.5z
									 M147.3,216.4c-1.2,0-2.2,0.4-3,1.2s-1.2,1.9-1.2,3.2s0.4,2.4,1.2,3.3c0.8,0.8,1.8,1.2,3,1.2s2.1-0.4,2.9-1.3
									c0.8-0.8,1.2-1.9,1.2-3.2s-0.4-2.4-1.2-3.2C149.4,216.9,148.4,216.4,147.3,216.4z"/>
								<path class="st2" d="M169.2,213.3h3.8v15.2h-3.8v-1.6c-0.7,0.7-1.5,1.2-2.2,1.5s-1.6,0.5-2.4,0.5c-2,0-3.7-0.8-5.1-2.3
									c-1.4-1.5-2.1-3.4-2.1-5.7s0.7-4.3,2.1-5.8c1.4-1.5,3.1-2.2,5-2.2c0.9,0,1.8,0.2,2.6,0.5s1.5,0.9,2.2,1.5v-1.6L169.2,213.3
									L169.2,213.3z M165.2,216.4c-1.2,0-2.2,0.4-2.9,1.2c-0.8,0.8-1.2,1.9-1.2,3.2s0.4,2.4,1.2,3.2s1.8,1.3,2.9,1.3
									c1.2,0,2.2-0.4,3-1.2s1.2-1.9,1.2-3.3c0-1.3-0.4-2.4-1.2-3.2C167.4,216.9,166.4,216.4,165.2,216.4z"/>
								<path class="st2" d="M176.5,207.5h3.8v21h-3.8V207.5z"/>
								<path class="st2" d="M201.9,210.8l-2.9,2.6c-1-1.4-2-2.1-3.1-2.1c-0.5,0-0.9,0.1-1.3,0.4s-0.5,0.6-0.5,0.9
									c0,0.3,0.1,0.7,0.3,1c0.3,0.4,1.3,1.3,2.9,2.6c1.5,1.2,2.4,2,2.7,2.4c0.8,0.8,1.4,1.6,1.7,2.3s0.5,1.5,0.5,2.4
									c0,1.7-0.6,3.1-1.7,4.2c-1.2,1.1-2.7,1.6-4.5,1.6c-1.5,0-2.7-0.4-3.8-1.1c-1.1-0.7-2-1.8-2.8-3.4l3.3-2
									c1,1.8,2.1,2.7,3.4,2.7c0.7,0,1.2-0.2,1.7-0.6c0.5-0.4,0.7-0.8,0.7-1.4c0-0.5-0.2-0.9-0.5-1.4s-1.1-1.2-2.3-2.1
									c-2.2-1.8-3.7-3.2-4.3-4.2c-0.7-1-1-2-1-3c0-1.4,0.5-2.6,1.6-3.7c1.1-1,2.4-1.5,4-1.5c1,0,2,0.2,2.9,0.7
									S200.9,209.5,201.9,210.8z"/>
								<path class="st2" d="M205.1,213.3h3.8v7.3c0,1.4,0.1,2.4,0.3,3s0.5,1,0.9,1.3s1,0.5,1.6,0.5s1.2-0.2,1.6-0.5
									c0.4-0.3,0.8-0.7,1-1.3c0.2-0.4,0.2-1.4,0.2-2.8v-7.4h3.8v6.4c0,2.6-0.2,4.5-0.6,5.4c-0.5,1.2-1.3,2.1-2.3,2.7
									c-1,0.6-2.3,1-3.8,1c-1.7,0-3-0.4-4-1.1c-1-0.7-1.7-1.8-2.2-3.1c-0.3-0.9-0.4-2.6-0.4-5L205.1,213.3L205.1,213.3z"/>
								<path class="st2" d="M233,213.3h3.8v15.2H233v-1.6c-0.7,0.7-1.5,1.2-2.2,1.5s-1.6,0.5-2.4,0.5c-2,0-3.7-0.8-5.1-2.3
									c-1.4-1.5-2.1-3.4-2.1-5.7s0.7-4.3,2.1-5.8c1.4-1.5,3.1-2.2,5-2.2c0.9,0,1.8,0.2,2.6,0.5s1.5,0.9,2.2,1.5v-1.6L233,213.3
									L233,213.3z M229,216.4c-1.2,0-2.2,0.4-2.9,1.2c-0.8,0.8-1.2,1.9-1.2,3.2s0.4,2.4,1.2,3.2s1.8,1.3,2.9,1.3
									c1.2,0,2.2-0.4,3-1.2s1.2-1.9,1.2-3.3c0-1.3-0.4-2.4-1.2-3.2C231.2,216.9,230.2,216.4,229,216.4z M230,205.1h4.5l-5.1,5.5
									h-2.7L230,205.1z"/>
								<path class="st2" d="M240,213.3h3.3v1.9c0.4-0.8,0.8-1.3,1.4-1.7c0.6-0.4,1.2-0.6,1.9-0.6c0.5,0,1,0.1,1.5,0.4l-1.2,3.3
									c-0.4-0.2-0.8-0.3-1.1-0.3c-0.6,0-1.1,0.4-1.5,1.1c-0.4,0.7-0.6,2.1-0.6,4.3v0.7v6.1H240V213.3z"/>
								<path class="st2" d="M264.4,222h-12.2c0.2,1.1,0.6,1.9,1.4,2.6c0.8,0.6,1.7,1,2.9,1c1.4,0,2.6-0.5,3.7-1.5l3.2,1.5
									c-0.8,1.1-1.8,2-2.9,2.5s-2.4,0.8-4,0.8c-2.4,0-4.3-0.8-5.8-2.3s-2.2-3.4-2.2-5.6c0-2.3,0.7-4.2,2.2-5.8
									c1.5-1.5,3.4-2.3,5.6-2.3c2.4,0,4.3,0.8,5.8,2.3s2.2,3.5,2.2,6.1L264.4,222z M260.6,219c-0.3-0.8-0.7-1.5-1.5-2.1
									c-0.7-0.5-1.6-0.8-2.6-0.8c-1.1,0-2,0.3-2.8,0.9c-0.5,0.4-1,1-1.4,2L260.6,219L260.6,219z"/>
								<path class="st2" d="M266.1,213.3h11.6l-6.8,11.9h6.4v3.2H265l6.8-11.9H266L266.1,213.3L266.1,213.3z"/>
							</g>
							<g>
								<path class="st3" d="M82.9,239.7l-6,16.8h-1.5l6-16.8H82.9z"/>
								<path class="st3" d="M89.7,239.7l-6,16.8h-1.5l6-16.8H89.7z"/>
								<path class="st3" d="M253.5,239.7l-6,16.8H246l6-16.8H253.5z"/>
								<path class="st3" d="M260.4,239.7l-6,16.8h-1.5l6-16.8H260.4z"/>
								<g>
									<path class="st3" d="M101.9,243.5l-0.9,0.7c-0.5-0.7-1.1-1.2-1.9-1.5c-0.7-0.3-1.5-0.5-2.4-0.5s-1.8,0.2-2.6,0.7
										c-0.8,0.5-1.4,1.1-1.9,1.8c-0.4,0.8-0.7,1.6-0.7,2.6c0,1.4,0.5,2.6,1.5,3.6s2.2,1.4,3.7,1.4c1.7,0,3-0.6,4.2-1.9l0.9,0.7
										c-0.6,0.8-1.3,1.3-2.2,1.7c-0.9,0.4-1.9,0.6-3,0.6c-2.1,0-3.7-0.7-4.9-2.1c-1-1.2-1.5-2.6-1.5-4.2c0-1.7,0.6-3.2,1.8-4.4
										c1.2-1.2,2.7-1.8,4.6-1.8c1.1,0,2.1,0.2,3,0.7C100.7,242.1,101.4,242.8,101.9,243.5z"/>
									<path class="st3" d="M108.3,244.2c1.3,0,2.5,0.5,3.3,1.5c0.8,0.9,1.2,1.9,1.2,3.2c0,1.2-0.4,2.3-1.3,3.2s-1.9,1.4-3.3,1.4
										c-1.3,0-2.4-0.5-3.3-1.4s-1.3-2-1.3-3.2s0.4-2.3,1.2-3.1C105.8,244.7,106.9,244.2,108.3,244.2z M108.3,245.3
										c-0.9,0-1.7,0.3-2.4,1c-0.7,0.7-1,1.5-1,2.5c0,0.6,0.2,1.2,0.5,1.8c0.3,0.5,0.7,1,1.2,1.3s1.1,0.4,1.7,0.4s1.2-0.1,1.7-0.4
										c0.5-0.3,0.9-0.7,1.2-1.3c0.3-0.5,0.5-1.1,0.5-1.8c0-1-0.3-1.8-1-2.5C110,245.6,109.2,245.3,108.3,245.3z"/>
									<path class="st3" d="M114.9,244.4h1.1v1.5c0.4-0.6,0.8-1,1.2-1.2c0.6-0.3,1.2-0.5,1.8-0.5c0.4,0,0.8,0.1,1.2,0.2
										c0.4,0.2,0.7,0.4,0.9,0.7c0.2,0.3,0.5,0.7,0.6,1.2c0.4-0.7,0.8-1.2,1.4-1.6c0.6-0.4,1.2-0.5,1.8-0.5c0.6,0,1.1,0.2,1.6,0.5
										s0.8,0.7,1,1.3c0.2,0.5,0.3,1.4,0.3,2.5v4.8h-1.1v-4.8c0-0.9-0.1-1.6-0.2-1.9c-0.1-0.3-0.4-0.6-0.7-0.8
										c-0.3-0.2-0.7-0.3-1.2-0.3s-1,0.2-1.5,0.5s-0.8,0.8-1,1.3s-0.3,1.4-0.3,2.7v3.4h-1.1v-4.5c0-1.1-0.1-1.8-0.2-2.1
										c-0.1-0.4-0.4-0.7-0.7-0.9c-0.3-0.2-0.7-0.3-1.2-0.3s-1,0.2-1.5,0.5s-0.8,0.7-1,1.3c-0.2,0.5-0.3,1.3-0.3,2.4v3.7h-1.1
										v-9.1L114.9,244.4L114.9,244.4z"/>
									<path class="st3" d="M130.4,244.4h1.1v1.6c0.4-0.6,1-1.1,1.5-1.4s1.2-0.5,1.9-0.5c1.2,0,2.3,0.4,3.2,1.3
										c0.9,0.9,1.3,2,1.3,3.2c0,1.3-0.4,2.4-1.3,3.3c-0.9,0.9-1.9,1.3-3.2,1.3c-0.7,0-1.3-0.1-1.9-0.4s-1.1-0.7-1.6-1.3v4.7h-1.1
										v-11.8L130.4,244.4L130.4,244.4z M134.9,245.3c-1,0-1.8,0.3-2.5,1s-1,1.5-1,2.5c0,0.7,0.1,1.3,0.4,1.8
										c0.3,0.5,0.7,1,1.3,1.3s1.1,0.5,1.8,0.5c0.6,0,1.2-0.2,1.7-0.5s1-0.7,1.3-1.3s0.5-1.2,0.5-1.8s-0.2-1.2-0.5-1.8
										s-0.7-1-1.3-1.3C136.1,245.4,135.5,245.3,134.9,245.3z"/>
									<path class="st3" d="M141.4,244.4h1.1v4.1c0,1,0.1,1.7,0.2,2.1c0.2,0.5,0.5,1,0.9,1.3c0.5,0.3,1,0.5,1.6,0.5
										s1.2-0.2,1.6-0.5c0.4-0.3,0.7-0.7,0.9-1.2c0.1-0.3,0.2-1.1,0.2-2.1v-4.1h1.1v4.3c0,1.2-0.1,2.1-0.4,2.7
										c-0.3,0.6-0.7,1.1-1.3,1.4c-0.6,0.3-1.3,0.5-2.1,0.5c-0.9,0-1.6-0.2-2.1-0.5c-0.6-0.3-1-0.8-1.3-1.4s-0.4-1.5-0.4-2.8
										V244.4z"/>
									<path class="st3" d="M152.5,241.2h1.1v3.2h1.8v1h-1.8v7.8h-1.1v-7.8H151v-1h1.5V241.2z"/>
									<path class="st3" d="M164.5,250.3l0.9,0.5c-0.3,0.6-0.7,1.1-1.1,1.5c-0.4,0.4-0.9,0.7-1.4,0.9s-1.1,0.3-1.7,0.3
										c-1.4,0-2.5-0.5-3.3-1.4s-1.2-2-1.2-3.2c0-1.1,0.3-2.1,1-3c0.9-1.1,2-1.7,3.5-1.7s2.7,0.6,3.6,1.7c0.6,0.8,1,1.8,1,3h-7.9
										c0,1,0.3,1.8,1,2.5c0.6,0.6,1.4,1,2.3,1c0.4,0,0.9-0.1,1.3-0.2c0.4-0.2,0.8-0.4,1.1-0.6
										C163.8,251.2,164.2,250.8,164.5,250.3z M164.5,247.9c-0.2-0.6-0.4-1.1-0.7-1.4c-0.3-0.4-0.7-0.6-1.1-0.9
										c-0.5-0.2-1-0.3-1.5-0.3c-0.9,0-1.6,0.3-2.2,0.8c-0.5,0.4-0.8,1-1,1.8L164.5,247.9L164.5,247.9z"/>
									<path class="st3" d="M167.4,244.4h1.1v1.3c0.3-0.5,0.7-0.9,1.1-1.1c0.4-0.2,0.8-0.4,1.2-0.4c0.3,0,0.6,0.1,1,0.3l-0.6,0.9
										c-0.2-0.1-0.4-0.2-0.6-0.2c-0.4,0-0.7,0.2-1.1,0.5c-0.3,0.3-0.6,0.8-0.8,1.4c-0.1,0.5-0.2,1.5-0.2,3v3h-1.1L167.4,244.4
										L167.4,244.4z"/>
									<path class="st3" d="M177.5,241.3h6.8v1.2h-5.6v3.7h5.5v1.2h-5.5v4.6h5.5v1.2h-6.7V241.3z"/>
									<path class="st3" d="M186.2,244.4h1.1v1.6c0.5-0.6,0.9-1,1.5-1.3c0.5-0.3,1.1-0.4,1.8-0.4s1.2,0.2,1.7,0.5s0.9,0.8,1.1,1.3
										c0.2,0.6,0.4,1.4,0.4,2.6v4.5h-1.1V249c0-1,0-1.7-0.1-2c-0.1-0.6-0.4-1-0.8-1.3c-0.4-0.3-0.9-0.4-1.4-0.4
										c-0.7,0-1.3,0.2-1.8,0.7s-0.9,1-1.1,1.7c-0.1,0.4-0.2,1.2-0.2,2.4v3.2h-1.1L186.2,244.4L186.2,244.4z"/>
									<path class="st3" d="M203.7,244.4h1.1v7c0,1.2-0.1,2.1-0.3,2.7c-0.3,0.8-0.8,1.4-1.5,1.9c-0.7,0.4-1.6,0.7-2.6,0.7
										c-0.8,0-1.4-0.1-2-0.3c-0.6-0.2-1.1-0.5-1.5-0.9s-0.7-0.9-1-1.6h1.2c0.3,0.6,0.8,1,1.3,1.3s1.2,0.4,2,0.4s1.4-0.1,1.9-0.4
										c0.5-0.3,0.9-0.6,1.1-1.1c0.2-0.4,0.3-1.1,0.3-2.1v-0.4c-0.4,0.5-0.9,0.9-1.6,1.2c-0.6,0.3-1.3,0.4-1.9,0.4
										c-0.8,0-1.6-0.2-2.3-0.6c-0.7-0.4-1.3-0.9-1.6-1.6c-0.4-0.7-0.6-1.4-0.6-2.2s0.2-1.6,0.6-2.3c0.4-0.7,1-1.3,1.7-1.7
										s1.5-0.6,2.2-0.6s1.3,0.1,1.8,0.4c0.6,0.3,1.1,0.7,1.6,1.3v-1.5L203.7,244.4L203.7,244.4z M200.4,245.3
										c-0.6,0-1.2,0.2-1.8,0.5c-0.5,0.3-1,0.7-1.3,1.3c-0.3,0.5-0.5,1.1-0.5,1.8c0,1,0.3,1.8,1,2.4c0.6,0.6,1.5,0.9,2.5,0.9
										s1.9-0.3,2.5-0.9c0.6-0.6,0.9-1.4,0.9-2.5c0-0.7-0.1-1.2-0.4-1.8c-0.3-0.5-0.7-0.9-1.2-1.2
										C201.6,245.4,201,245.3,200.4,245.3z"/>
									<path class="st3" d="M207.7,240.8c0.3,0,0.5,0.1,0.7,0.3s0.3,0.4,0.3,0.7s-0.1,0.5-0.3,0.6c-0.2,0.2-0.4,0.3-0.7,0.3
										s-0.5-0.1-0.6-0.3c-0.2-0.2-0.3-0.4-0.3-0.6c0-0.3,0.1-0.5,0.3-0.7C207.2,240.9,207.4,240.8,207.7,240.8z M207.1,244.4h1.1
										v8.7h-1.1V244.4z"/>
									<path class="st3" d="M210.6,244.4h1.1v1.6c0.5-0.6,0.9-1,1.5-1.3c0.5-0.3,1.1-0.4,1.8-0.4s1.2,0.2,1.7,0.5s0.9,0.8,1.1,1.3
										c0.2,0.6,0.4,1.4,0.4,2.6v4.5h-1.1V249c0-1,0-1.7-0.1-2c-0.1-0.6-0.4-1-0.8-1.3c-0.4-0.3-0.9-0.4-1.4-0.4
										c-0.7,0-1.3,0.2-1.8,0.7s-0.9,1-1.1,1.7c-0.1,0.4-0.2,1.2-0.2,2.4v3.2h-1.1L210.6,244.4L210.6,244.4z"/>
									<path class="st3" d="M228,250.3l0.9,0.5c-0.3,0.6-0.7,1.1-1.1,1.5c-0.4,0.4-0.9,0.7-1.4,0.9s-1.1,0.3-1.7,0.3
										c-1.4,0-2.5-0.5-3.3-1.4s-1.2-2-1.2-3.2c0-1.1,0.3-2.1,1-3c0.9-1.1,2-1.7,3.5-1.7s2.7,0.6,3.6,1.7c0.6,0.8,1,1.8,1,3h-7.9
										c0,1,0.3,1.8,1,2.5c0.6,0.6,1.4,1,2.3,1c0.4,0,0.9-0.1,1.3-0.2c0.4-0.2,0.8-0.4,1.1-0.6C227.3,251.2,227.6,250.8,228,250.3
										z M228,247.9c-0.2-0.6-0.4-1.1-0.7-1.4c-0.3-0.4-0.7-0.6-1.1-0.9c-0.5-0.2-1-0.3-1.5-0.3c-0.9,0-1.6,0.3-2.2,0.8
										c-0.5,0.4-0.8,1-1,1.8L228,247.9L228,247.9z"/>
									<path class="st3" d="M238.7,250.3l0.9,0.5c-0.3,0.6-0.7,1.1-1.1,1.5c-0.4,0.4-0.9,0.7-1.4,0.9s-1.1,0.3-1.7,0.3
										c-1.4,0-2.5-0.5-3.3-1.4s-1.2-2-1.2-3.2c0-1.1,0.3-2.1,1-3c0.9-1.1,2-1.7,3.5-1.7s2.7,0.6,3.6,1.7c0.6,0.8,1,1.8,1,3h-8
										c0,1,0.3,1.8,1,2.5c0.6,0.6,1.4,1,2.3,1c0.4,0,0.9-0.1,1.3-0.2c0.4-0.2,0.8-0.4,1.1-0.6C238,251.2,238.3,250.8,238.7,250.3
										z M238.7,247.9c-0.2-0.6-0.4-1.1-0.7-1.4c-0.3-0.4-0.7-0.6-1.1-0.9c-0.5-0.2-1-0.3-1.5-0.3c-0.9,0-1.6,0.3-2.2,0.8
										c-0.5,0.4-0.8,1-1,1.8L238.7,247.9L238.7,247.9z"/>
									<path class="st3" d="M241.6,244.4h1.1v1.3c0.3-0.5,0.7-0.9,1.1-1.1c0.4-0.2,0.8-0.4,1.2-0.4c0.3,0,0.6,0.1,1,0.3l-0.6,0.9
										c-0.2-0.1-0.4-0.2-0.6-0.2c-0.4,0-0.7,0.2-1.1,0.5c-0.3,0.3-0.6,0.8-0.8,1.4c-0.1,0.5-0.2,1.5-0.2,3v3h-1.1L241.6,244.4
										L241.6,244.4z"/>
								</g>
							</g>
						</g>
					</g>
				</g>
			</g>
		</g>
	</g>
</g>
<g id="un_color_v" class="st0">
	<g class="st1">
		<g>
			<g>
				<g>
					<g>
						<g>
							<path class="st2" d="M121.9,174.2c0.7,0,1.3-0.4,1.6-0.9l9-16.6c0.2,0,0.4,0,0.6,0c2.7,0,4.9-2.2,4.9-4.9
								c0-1.2-0.4-2.3-1.1-3.1c-0.8-0.9-1.9-1.5-3.1-1.7c-0.2,0-0.4,0-0.6,0c-2.7,0-4.9,2.2-4.9,4.9c0,1.2,0.4,2.3,1.1,3.2
								l-8.9,16.6v0.1c-0.1,0.2-0.2,0.5-0.2,0.8C120.1,173.3,120.9,174.2,121.9,174.2z M131.4,150.9L131.4,150.9
								c0.3-0.6,0.9-1,1.6-1c1,0,1.8,0.8,1.8,1.8c0,0.3-0.1,0.6-0.2,0.8l0,0c-0.3,0.5-0.9,0.9-1.6,0.9c-1,0-1.8-0.8-1.8-1.8
								C131.2,151.4,131.3,151.1,131.4,150.9z"/>
							<path class="st2" d="M180.4,141.5L180.4,141.5L169,120.3c0.2-0.5,0.2-1,0.2-1.5c0-2.7-2.2-4.9-4.9-4.9s-4.9,2.2-4.9,4.9
								c0,0.6,0.1,1.1,0.3,1.7l-11.9,22l-1.9,3.6l-16.4,30.4c-0.2,0-0.5-0.1-0.7-0.1c-2.1,0-3.9,1.3-4.6,3.2h-15.1
								c-0.4,0-0.7-0.3-0.7-0.7c0-0.1,0-0.2,0.1-0.3l2-3.7l0,0l17.3-32c0.2,0,0.4,0,0.6,0c2.7,0,4.9-2.2,4.9-4.9
								c0-1.2-0.4-2.3-1.2-3.2s-1.9-1.5-3.1-1.7c-0.2,0-0.4,0-0.6,0c-2.7,0-4.9,2.2-4.9,4.9c0,1.2,0.4,2.3,1.2,3.1l-19.1,35.3l0,0
								c0,0,0,0,0,0.1l-0.3,0.6c0,0,0,0,0,0.1c-0.2,0.5-0.3,1.1-0.3,1.6c0,2.4,1.9,4.3,4.3,4.3h15.2c0.7,1.7,2.5,3,4.5,3
								c2.7,0,4.9-2.2,4.9-4.9c0-1.1-0.4-2.2-1-3l17.4-32.2h27.6c1.7,0,3.2-1.4,3.2-3.2C180.7,142.4,180.6,141.9,180.4,141.5z
								 M126.7,137.3l0.1-0.2l0,0c0.3-0.5,0.9-0.8,1.5-0.8c1,0,1.8,0.8,1.8,1.8c0,0.3-0.1,0.6-0.2,0.8c0,0.1-0.1,0.1-0.1,0.2
								c-0.3,0.5-0.9,0.8-1.5,0.8c-1,0-1.8-0.8-1.8-1.8C126.5,137.8,126.6,137.5,126.7,137.3z M128.8,183.1c-1,0-1.8-0.8-1.8-1.8
								s0.8-1.8,1.8-1.8s1.8,0.8,1.8,1.8S129.8,183.1,128.8,183.1z M164.3,117c1,0,1.8,0.8,1.8,1.8c0,0.8-0.5,1.4-1.1,1.7
								c-0.2,0.1-0.4,0.1-0.7,0.1c-0.2,0-0.4,0-0.5-0.1c-0.7-0.2-1.2-0.9-1.2-1.7C162.5,117.8,163.3,117,164.3,117z M176.4,142.5
								h-24.5l9.9-18.3l0,0l0.5-0.9c0.6,0.3,1.3,0.4,2,0.4c0.8,0,1.5-0.2,2.1-0.5l0.5,1l8.7,16.2l0.9,1.7v0.1
								C176.7,142.4,176.5,142.5,176.4,142.5z"/>
							<path class="st2" d="M223.9,176.6c-0.2,0-0.4,0-0.6,0l-44.9-83.2l-2-3.8l0,0l-4-7.3l-2-3.8l0,0l-1.5-2.8
								c0.2-0.6,0.3-1.2,0.3-1.8c0-2.7-2.2-4.9-4.9-4.9s-4.9,2.2-4.9,4.9c0,0.7,0.1,1.4,0.4,1.9l-23.2,43l0,0l-0.1,0.2
								c-0.1,0.2-0.2,0.5-0.2,0.8c0,1,0.8,1.8,1.8,1.8c0.7,0,1.3-0.4,1.6-0.9l22.1-41l0.7-1.3c0.6,0.2,1.2,0.3,1.8,0.3
								c0.7,0,1.3-0.1,1.9-0.4l0.7,1.4l1.4,2.6l2,3.8l4,7.3l2,3.8l43.8,81.1c-0.3,0.4-0.6,0.9-0.8,1.4H213l-6.3-11.6
								c0.7-0.8,1.1-1.9,1.1-3.1c0-2.7-2.2-4.9-4.9-4.9c-0.2,0-0.4,0-0.6,0l-30-55.5l-2-3.8l-2.3-4.2c-0.7-1.3-2.1-2.2-3.7-2.2
								c-1.6,0-3,0.9-3.7,2.2c0,0,0,0.1-0.1,0.1l-2.2,4.1l-2,3.8l-4.3,8c-0.2,0-0.4,0-0.6,0c-2.7,0-4.9,2.2-4.9,4.9
								c0,1.2,0.4,2.3,1.2,3.2c0.8,0.9,1.9,1.5,3.1,1.7c0.2,0,0.4,0,0.6,0c2.7,0,4.9-2.2,4.9-4.9c0-1.2-0.4-2.3-1.1-3.1l3.2-6l2-3.8
								l1.4-2.6l2-3.6v-0.1c0.1-0.2,0.3-0.3,0.6-0.3s0.5,0.1,0.6,0.4l0,0l2,3.7l1.4,2.6l2,3.8l28.8,53.5c-0.7,0.8-1.1,1.9-1.1,3.1
								c0,2.7,2.2,4.9,4.9,4.9c0.2,0,0.4,0,0.6,0l5.4,9.9h-7.4l0,0c-0.3,0-0.7-0.2-0.8-0.5v-0.1l-2-3.8l-7.6-14.1
								c0.6-0.8,0.9-1.8,0.9-2.8c0-2.7-2.2-4.9-4.9-4.9c-2,0-3.7,1.2-4.4,2.9h-18.4c-1,0-1.8,0.8-1.8,1.8s0.8,1.8,1.8,1.8h18.2
								c0.7,1.9,2.5,3.3,4.6,3.3c0.3,0,0.6,0,1-0.1l8.9,16.5l0.6,1.1c0,0,0,0,0,0.1c0,0,0,0,0,0.1l0,0c0.8,1.4,2.2,2.3,3.9,2.3h17.8
								c0.7,1.8,2.5,3.1,4.5,3.1c2.7,0,4.9-2.2,4.9-4.9C228.8,178.8,226.6,176.6,223.9,176.6z M164.3,75.7c-1,0-1.8-0.8-1.8-1.8
								c0-0.8,0.6-1.5,1.3-1.7c0.1,0,0.3-0.1,0.4-0.1c0.1,0,0.2,0,0.4,0c0.8,0.2,1.4,0.9,1.4,1.8C166.1,74.9,165.3,75.7,164.3,75.7z
								 M153,118.2C153,118.2,153,118.3,153,118.2c-0.3,0.6-0.9,1-1.6,1c-1,0-1.8-0.8-1.8-1.8c0-0.3,0.1-0.6,0.2-0.8l0.1-0.1
								c0,0,0,0,0-0.1c0.3-0.5,0.9-0.8,1.5-0.8c1,0,1.8,0.8,1.8,1.8C153.2,117.7,153.2,118,153,118.2z M203,166.7
								c-0.6,0-1.2-0.3-1.5-0.8c0-0.1-0.1-0.1-0.1-0.2c-0.1-0.2-0.2-0.5-0.2-0.8c0-1,0.8-1.8,1.8-1.8c0.7,0,1.3,0.4,1.6,0.9
								c0.1,0.3,0.2,0.5,0.2,0.9C204.8,165.9,204,166.7,203,166.7z M187.1,160.2c-0.3,0-0.5-0.1-0.8-0.2c0,0-0.1,0-0.1-0.1
								c-0.6-0.3-0.9-0.9-0.9-1.6c0-1,0.8-1.8,1.8-1.8s1.8,0.8,1.8,1.8C188.8,159.4,188,160.2,187.1,160.2z M223.9,183.3
								c-1,0-1.8-0.8-1.8-1.8s0.8-1.8,1.8-1.8c0.6,0,1.2,0.3,1.5,0.8c0,0.1,0.1,0.1,0.1,0.2c0.1,0.2,0.2,0.5,0.2,0.8
								C225.7,182.5,224.9,183.3,223.9,183.3z"/>
						</g>
						<g>
							<path class="st2" d="M67.6,208h4l7.9,20.5h-4.1l-1.6-4.2h-8.4l-1.7,4.2h-4.1L67.6,208z M69.6,213.5l-2.8,7h5.5L69.6,213.5z"
								/>
							<path class="st2" d="M91.5,215.5l-2.4,2.4c-1-0.9-1.8-1.4-2.6-1.4c-0.4,0-0.8,0.1-1,0.3s-0.4,0.4-0.4,0.7
								c0,0.2,0.1,0.4,0.2,0.6c0.2,0.2,0.5,0.4,1.1,0.7l1.4,0.7c1.5,0.7,2.5,1.5,3,2.2s0.8,1.6,0.8,2.7c0,1.3-0.5,2.5-1.5,3.4
								s-2.3,1.4-4,1.4c-2.2,0-4-0.9-5.3-2.6l2.3-2.6c0.4,0.5,1,0.9,1.6,1.3c0.6,0.3,1.1,0.5,1.6,0.5s0.9-0.1,1.2-0.4
								c0.3-0.2,0.5-0.5,0.5-0.8c0-0.6-0.6-1.2-1.7-1.7l-1.3-0.6c-2.5-1.2-3.7-2.8-3.7-4.6c0-1.2,0.5-2.2,1.4-3.1
								c0.9-0.9,2.1-1.3,3.6-1.3c1,0,1.9,0.2,2.8,0.6C90.1,214.1,90.9,214.7,91.5,215.5z"/>
							<path class="st2" d="M105.6,207.5h3.8v21h-3.8V227c-0.7,0.7-1.5,1.2-2.2,1.5s-1.6,0.5-2.4,0.5c-2,0-3.7-0.8-5.1-2.3
								s-2.1-3.4-2.1-5.7s0.7-4.3,2.1-5.8s3.1-2.2,5-2.2c0.9,0,1.8,0.2,2.6,0.5c0.8,0.3,1.5,0.9,2.2,1.5L105.6,207.5L105.6,207.5z
								 M101.6,216.5c-1.2,0-2.2,0.4-2.9,1.2c-0.8,0.8-1.2,1.9-1.2,3.2s0.4,2.4,1.2,3.2c0.8,0.8,1.8,1.3,2.9,1.3
								c1.2,0,2.2-0.4,3-1.2s1.2-1.9,1.2-3.3c0-1.3-0.4-2.4-1.2-3.2S102.8,216.5,101.6,216.5z"/>
							<path class="st2" d="M112.6,213.4h3.3v1.9c0.4-0.8,0.8-1.3,1.4-1.7s1.2-0.6,1.9-0.6c0.5,0,1,0.1,1.5,0.4l-1.2,3.3
								c-0.4-0.2-0.8-0.3-1.1-0.3c-0.6,0-1.1,0.4-1.5,1.1c-0.4,0.7-0.6,2.1-0.6,4.3v0.7v6.1h-3.8L112.6,213.4L112.6,213.4z"/>
							<path class="st2" d="M122.5,213.4h3.9v7.3c0,1.4,0.1,2.4,0.3,3c0.2,0.6,0.5,1,0.9,1.3c0.4,0.3,1,0.5,1.6,0.5s1.2-0.2,1.6-0.5
								c0.4-0.3,0.8-0.7,1-1.3c0.2-0.4,0.2-1.4,0.2-2.8v-7.4h3.8v6.4c0,2.7-0.2,4.5-0.6,5.4c-0.5,1.2-1.3,2.1-2.3,2.7
								c-1,0.6-2.3,1-3.8,1c-1.7,0-3-0.4-4-1.1c-1-0.7-1.8-1.8-2.2-3.1c-0.3-0.9-0.4-2.6-0.4-5C122.5,219.8,122.5,213.4,122.5,213.4
								z M129.8,205.1h4.5l-5.1,5.5h-2.7L129.8,205.1z"/>
							<path class="st2" d="M143.2,207.5v7.5c0.7-0.7,1.4-1.2,2.2-1.5s1.7-0.5,2.6-0.5c2,0,3.7,0.7,5.1,2.2c1.4,1.5,2.1,3.4,2.1,5.8
								c0,2.3-0.7,4.2-2.1,5.7c-1.4,1.5-3.1,2.3-5.1,2.3c-0.9,0-1.7-0.2-2.4-0.5c-0.8-0.3-1.5-0.8-2.2-1.5v1.6h-3.8v-21h3.6
								L143.2,207.5L143.2,207.5z M147.2,216.5c-1.2,0-2.2,0.4-3,1.2s-1.2,1.9-1.2,3.2s0.4,2.4,1.2,3.3c0.8,0.8,1.8,1.2,3,1.2
								s2.1-0.4,2.9-1.3c0.8-0.8,1.2-1.9,1.2-3.2s-0.4-2.4-1.2-3.2C149.4,216.9,148.4,216.5,147.2,216.5z"/>
							<path class="st2" d="M169.2,213.4h3.8v15.2h-3.8V227c-0.7,0.7-1.5,1.2-2.2,1.5s-1.6,0.5-2.4,0.5c-2,0-3.7-0.8-5.1-2.3
								c-1.4-1.5-2.1-3.4-2.1-5.7s0.7-4.3,2.1-5.8c1.4-1.5,3.1-2.2,5-2.2c0.9,0,1.8,0.2,2.6,0.5s1.5,0.9,2.2,1.5v-1.6H169.2z
								 M165.2,216.5c-1.2,0-2.2,0.4-2.9,1.2c-0.8,0.8-1.2,1.9-1.2,3.2s0.4,2.4,1.2,3.2s1.8,1.3,2.9,1.3c1.2,0,2.2-0.4,3-1.2
								s1.2-1.9,1.2-3.3c0-1.3-0.4-2.4-1.2-3.2S166.4,216.5,165.2,216.5z"/>
							<path class="st2" d="M176.5,207.5h3.8v21h-3.8V207.5z"/>
							<path class="st2" d="M202,210.8l-2.9,2.6c-1-1.4-2.1-2.1-3.1-2.1c-0.5,0-0.9,0.1-1.3,0.4c-0.3,0.3-0.5,0.6-0.5,0.9
								c0,0.3,0.1,0.7,0.3,1c0.3,0.4,1.3,1.3,2.9,2.6c1.5,1.2,2.4,2,2.7,2.4c0.8,0.8,1.4,1.6,1.7,2.3s0.5,1.5,0.5,2.4
								c0,1.7-0.6,3.1-1.7,4.2c-1.2,1.1-2.7,1.6-4.6,1.6c-1.5,0-2.7-0.4-3.8-1.1c-1.1-0.7-2-1.8-2.8-3.4l3.3-2
								c1,1.8,2.1,2.7,3.4,2.7c0.7,0,1.2-0.2,1.7-0.6c0.5-0.4,0.7-0.8,0.7-1.4c0-0.5-0.2-0.9-0.5-1.4s-1.1-1.2-2.3-2.1
								c-2.2-1.8-3.7-3.2-4.3-4.2c-0.7-1-1-2-1-3c0-1.4,0.5-2.6,1.6-3.7c1.1-1,2.4-1.5,4-1.5c1,0,2,0.2,2.9,0.7
								C199.9,208.7,200.9,209.6,202,210.8z"/>
							<path class="st2" d="M205.1,213.4h3.9v7.3c0,1.4,0.1,2.4,0.3,3s0.5,1,0.9,1.3s1,0.5,1.6,0.5s1.2-0.2,1.6-0.5
								c0.4-0.3,0.8-0.7,1-1.3c0.2-0.4,0.2-1.4,0.2-2.8v-7.4h3.8v6.4c0,2.7-0.2,4.5-0.6,5.4c-0.5,1.2-1.3,2.1-2.3,2.7
								c-1,0.6-2.3,1-3.8,1c-1.7,0-3-0.4-4-1.1c-1-0.7-1.8-1.8-2.2-3.1c-0.3-0.9-0.4-2.6-0.4-5V213.4z"/>
							<path class="st2" d="M233.1,213.4h3.8v15.2h-3.8V227c-0.7,0.7-1.5,1.2-2.2,1.5s-1.6,0.5-2.4,0.5c-2,0-3.7-0.8-5.1-2.3
								c-1.4-1.5-2.1-3.4-2.1-5.7s0.7-4.3,2.1-5.8c1.4-1.5,3.1-2.2,5-2.2c0.9,0,1.8,0.2,2.6,0.5s1.5,0.9,2.2,1.5v-1.6H233.1z
								 M229.1,216.5c-1.2,0-2.2,0.4-2.9,1.2c-0.8,0.8-1.2,1.9-1.2,3.2s0.4,2.4,1.2,3.2s1.8,1.3,2.9,1.3c1.2,0,2.2-0.4,3-1.2
								s1.2-1.9,1.2-3.3c0-1.3-0.4-2.4-1.2-3.2S230.3,216.5,229.1,216.5z M230.1,205.1h4.5l-5.1,5.5h-2.7L230.1,205.1z"/>
							<path class="st2" d="M240.1,213.4h3.3v1.9c0.4-0.8,0.8-1.3,1.4-1.7c0.6-0.4,1.2-0.6,1.9-0.6c0.5,0,1,0.1,1.5,0.4l-1.2,3.3
								c-0.4-0.2-0.8-0.3-1.1-0.3c-0.6,0-1.1,0.4-1.5,1.1c-0.4,0.7-0.6,2.1-0.6,4.3v0.7v6.1H240v-15.2H240.1z"/>
							<path class="st2" d="M264.6,222.1h-12.2c0.2,1.1,0.6,1.9,1.4,2.6c0.8,0.6,1.7,1,2.9,1c1.4,0,2.6-0.5,3.7-1.5l3.2,1.5
								c-0.8,1.1-1.8,2-2.9,2.5s-2.4,0.8-4,0.8c-2.4,0-4.3-0.8-5.8-2.3s-2.2-3.4-2.2-5.6c0-2.3,0.7-4.2,2.2-5.8
								c1.5-1.5,3.4-2.3,5.6-2.3c2.4,0,4.3,0.8,5.8,2.3s2.2,3.6,2.2,6.1L264.6,222.1z M260.7,219.1c-0.3-0.8-0.7-1.5-1.5-2.1
								c-0.7-0.5-1.6-0.8-2.6-0.8c-1.1,0-2,0.3-2.8,0.9c-0.5,0.4-1,1-1.4,2L260.7,219.1L260.7,219.1z"/>
							<path class="st2" d="M266.3,213.4h11.6l-6.8,12h6.4v3.2h-12.3l6.9-12h-5.8L266.3,213.4L266.3,213.4z"/>
						</g>
						<g>
							<path class="st2" d="M82.8,239.8l-6,16.8h-1.5l6-16.8H82.8z"/>
							<path class="st2" d="M89.6,239.8l-6,16.8h-1.5l6-16.8H89.6z"/>
							<path class="st2" d="M253.6,239.8l-6,16.8h-1.5l6-16.8H253.6z"/>
							<path class="st2" d="M260.5,239.8l-6,16.8H253l6-16.8H260.5z"/>
							<g>
								<path class="st2" d="M101.9,243.6l-0.9,0.7c-0.5-0.7-1.1-1.2-1.9-1.5c-0.7-0.3-1.5-0.5-2.4-0.5s-1.8,0.2-2.6,0.7
									c-0.8,0.5-1.4,1.1-1.9,1.8c-0.4,0.8-0.7,1.6-0.7,2.6c0,1.4,0.5,2.6,1.5,3.6s2.2,1.4,3.7,1.4c1.7,0,3-0.6,4.2-1.9l0.9,0.7
									c-0.6,0.8-1.3,1.3-2.2,1.7s-1.9,0.6-3,0.6c-2.1,0-3.7-0.7-4.9-2.1c-1-1.2-1.5-2.6-1.5-4.2c0-1.7,0.6-3.2,1.8-4.4
									c1.2-1.2,2.7-1.8,4.6-1.8c1.1,0,2.1,0.2,3,0.7C100.6,242.2,101.3,242.9,101.9,243.6z"/>
								<path class="st2" d="M108.2,244.3c1.3,0,2.5,0.5,3.4,1.5c0.8,0.9,1.2,1.9,1.2,3.2c0,1.2-0.4,2.3-1.3,3.2s-1.9,1.4-3.3,1.4
									c-1.3,0-2.4-0.5-3.3-1.4s-1.3-2-1.3-3.2s0.4-2.3,1.2-3.2C105.7,244.8,106.8,244.3,108.2,244.3z M108.2,245.4
									c-0.9,0-1.7,0.3-2.4,1c-0.7,0.7-1,1.5-1,2.5c0,0.6,0.2,1.2,0.5,1.8c0.3,0.5,0.7,1,1.2,1.3s1.1,0.4,1.7,0.4s1.2-0.1,1.7-0.4
									c0.5-0.3,0.9-0.7,1.2-1.3c0.3-0.5,0.5-1.1,0.5-1.8c0-1-0.3-1.8-1-2.5C109.9,245.8,109.1,245.4,108.2,245.4z"/>
								<path class="st2" d="M114.8,244.5h1.1v1.5c0.4-0.6,0.8-1,1.2-1.2c0.6-0.3,1.2-0.5,1.8-0.5c0.4,0,0.8,0.1,1.2,0.2
									c0.4,0.2,0.7,0.4,0.9,0.7c0.2,0.3,0.5,0.7,0.6,1.2c0.4-0.7,0.8-1.2,1.4-1.6c0.6-0.4,1.2-0.5,1.8-0.5c0.6,0,1.1,0.2,1.6,0.5
									s0.8,0.7,1,1.3c0.2,0.5,0.3,1.4,0.3,2.5v4.8h-1.2v-4.8c0-0.9-0.1-1.6-0.2-1.9c-0.1-0.4-0.4-0.6-0.7-0.8
									c-0.3-0.2-0.7-0.3-1.2-0.3s-1,0.2-1.5,0.5s-0.8,0.8-1,1.3s-0.3,1.4-0.3,2.7v3.4h-1.1V249c0-1.1-0.1-1.8-0.2-2.2
									s-0.4-0.7-0.7-0.9c-0.3-0.2-0.7-0.3-1.2-0.3s-1,0.2-1.5,0.5s-0.8,0.7-1,1.3c-0.2,0.5-0.3,1.3-0.3,2.4v3.7h-1.1v-9H114.8z"/>
								<path class="st2" d="M130.3,244.5h1.1v1.6c0.4-0.6,1-1.1,1.5-1.4s1.2-0.5,1.9-0.5c1.2,0,2.3,0.4,3.2,1.3
									c0.9,0.9,1.3,2,1.3,3.2c0,1.3-0.4,2.4-1.3,3.3c-0.9,0.9-1.9,1.3-3.2,1.3c-0.7,0-1.3-0.1-1.9-0.4c-0.6-0.3-1.1-0.7-1.6-1.3
									v4.7h-1.1v-11.8L130.3,244.5L130.3,244.5z M134.8,245.4c-1,0-1.8,0.3-2.5,1s-1,1.5-1,2.5c0,0.7,0.1,1.3,0.4,1.8
									c0.3,0.5,0.7,1,1.3,1.3s1.1,0.5,1.8,0.5c0.6,0,1.2-0.2,1.7-0.5s1-0.8,1.3-1.3c0.3-0.6,0.5-1.2,0.5-1.8s-0.2-1.2-0.5-1.8
									s-0.7-1-1.3-1.3C136,245.5,135.4,245.4,134.8,245.4z"/>
								<path class="st2" d="M141.4,244.5h1.1v4.1c0,1,0.1,1.7,0.2,2.1c0.2,0.5,0.5,1,0.9,1.3c0.5,0.3,1,0.5,1.6,0.5
									s1.2-0.2,1.6-0.5c0.4-0.3,0.7-0.7,0.9-1.2c0.1-0.3,0.2-1.1,0.2-2.1v-4.1h1.2v4.3c0,1.2-0.1,2.1-0.4,2.7
									c-0.3,0.6-0.7,1.1-1.3,1.4c-0.6,0.3-1.3,0.5-2.1,0.5c-0.9,0-1.6-0.2-2.1-0.5c-0.6-0.3-1-0.8-1.3-1.4
									c-0.3-0.6-0.4-1.6-0.4-2.8L141.4,244.5L141.4,244.5z"/>
								<path class="st2" d="M152.5,241.3h1.1v3.2h1.8v1h-1.8v7.8h-1.1v-7.8H151v-1h1.5V241.3z"/>
								<path class="st2" d="M164.5,250.4l0.9,0.5c-0.3,0.6-0.7,1.1-1.1,1.5c-0.4,0.4-0.9,0.7-1.4,0.9s-1.1,0.3-1.7,0.3
									c-1.4,0-2.5-0.5-3.3-1.4s-1.2-2-1.2-3.2c0-1.1,0.3-2.1,1-3c0.9-1.1,2-1.7,3.5-1.7s2.7,0.6,3.6,1.7c0.6,0.8,1,1.8,1,3h-7.9
									c0,1,0.3,1.8,1,2.5c0.6,0.6,1.4,1,2.3,1c0.4,0,0.9-0.1,1.3-0.2c0.4-0.2,0.8-0.4,1.1-0.6
									C163.8,251.4,164.2,250.9,164.5,250.4z M164.5,248c-0.2-0.6-0.4-1.1-0.7-1.4c-0.3-0.4-0.7-0.6-1.1-0.9
									c-0.5-0.2-1-0.3-1.5-0.3c-0.9,0-1.6,0.3-2.2,0.8c-0.5,0.4-0.8,1-1,1.8L164.5,248L164.5,248z"/>
								<path class="st2" d="M167.4,244.5h1.2v1.3c0.3-0.5,0.7-0.9,1.1-1.1c0.4-0.2,0.8-0.4,1.2-0.4c0.3,0,0.6,0.1,1,0.3l-0.6,0.9
									c-0.2-0.1-0.4-0.2-0.6-0.2c-0.4,0-0.7,0.2-1.1,0.5c-0.3,0.3-0.6,0.8-0.8,1.4c-0.1,0.5-0.2,1.5-0.2,3v3h-1.2L167.4,244.5
									L167.4,244.5z"/>
								<path class="st2" d="M177.5,241.4h6.8v1.2h-5.6v3.7h5.6v1.2h-5.6v4.6h5.6v1.2h-6.7v-11.9H177.5z"/>
								<path class="st2" d="M186.2,244.5h1.1v1.6c0.5-0.6,0.9-1,1.5-1.3c0.5-0.3,1.1-0.4,1.8-0.4s1.2,0.2,1.7,0.5s0.9,0.8,1.1,1.3
									c0.2,0.6,0.4,1.4,0.4,2.6v4.5h-1.1v-4.2c0-1,0-1.7-0.1-2c-0.1-0.6-0.4-1-0.8-1.3c-0.4-0.3-0.9-0.4-1.4-0.4
									c-0.7,0-1.3,0.2-1.8,0.7s-0.9,1-1.1,1.7c-0.1,0.4-0.2,1.2-0.2,2.4v3.2h-1.1L186.2,244.5L186.2,244.5z"/>
								<path class="st2" d="M203.8,244.5h1.1v7c0,1.2-0.1,2.1-0.3,2.7c-0.3,0.8-0.8,1.4-1.5,1.9c-0.7,0.4-1.6,0.7-2.6,0.7
									c-0.8,0-1.4-0.1-2-0.3c-0.6-0.2-1.1-0.5-1.5-0.9s-0.7-0.9-1-1.6h1.2c0.3,0.6,0.8,1,1.3,1.3s1.2,0.4,2,0.4s1.4-0.1,1.9-0.4
									c0.5-0.3,0.9-0.6,1.1-1.1c0.2-0.4,0.3-1.1,0.3-2.1v-0.5c-0.4,0.5-0.9,0.9-1.6,1.2c-0.6,0.3-1.3,0.4-1.9,0.4
									c-0.8,0-1.6-0.2-2.3-0.6c-0.7-0.4-1.3-0.9-1.6-1.6c-0.4-0.7-0.6-1.4-0.6-2.2s0.2-1.6,0.6-2.3c0.4-0.7,1-1.3,1.7-1.7
									s1.5-0.6,2.3-0.6c0.7,0,1.3,0.1,1.8,0.4c0.6,0.3,1.1,0.7,1.6,1.3V244.5z M200.5,245.4c-0.6,0-1.2,0.2-1.8,0.5
									c-0.5,0.3-1,0.7-1.3,1.3c-0.3,0.5-0.5,1.1-0.5,1.8c0,1,0.3,1.8,1,2.4c0.6,0.6,1.5,0.9,2.5,0.9s1.9-0.3,2.5-0.9
									c0.6-0.6,0.9-1.4,0.9-2.5c0-0.7-0.1-1.2-0.4-1.8c-0.3-0.5-0.7-0.9-1.2-1.2C201.6,245.5,201.1,245.4,200.5,245.4z"/>
								<path class="st2" d="M207.7,240.9c0.3,0,0.5,0.1,0.7,0.3s0.3,0.4,0.3,0.7s-0.1,0.5-0.3,0.7s-0.4,0.3-0.7,0.3
									s-0.5-0.1-0.6-0.3c-0.2-0.2-0.3-0.4-0.3-0.7s0.1-0.5,0.3-0.7C207.2,241,207.5,240.9,207.7,240.9z M207.2,244.5h1.1v8.8h-1.1
									V244.5z"/>
								<path class="st2" d="M210.6,244.5h1.1v1.6c0.5-0.6,0.9-1,1.5-1.3c0.5-0.3,1.1-0.4,1.8-0.4s1.2,0.2,1.7,0.5s0.9,0.8,1.1,1.3
									c0.2,0.6,0.4,1.4,0.4,2.6v4.5h-1.1v-4.2c0-1,0-1.7-0.1-2c-0.1-0.6-0.4-1-0.8-1.3c-0.4-0.3-0.9-0.4-1.4-0.4
									c-0.7,0-1.3,0.2-1.8,0.7s-0.9,1-1.1,1.7c-0.1,0.4-0.2,1.2-0.2,2.4v3.2h-1.1L210.6,244.5L210.6,244.5z"/>
								<path class="st2" d="M228,250.4l0.9,0.5c-0.3,0.6-0.7,1.1-1.1,1.5c-0.4,0.4-0.9,0.7-1.4,0.9s-1.1,0.3-1.7,0.3
									c-1.4,0-2.5-0.5-3.3-1.4s-1.2-2-1.2-3.2c0-1.1,0.3-2.1,1-3c0.9-1.1,2-1.7,3.5-1.7s2.7,0.6,3.6,1.7c0.6,0.8,1,1.8,1,3h-7.9
									c0,1,0.3,1.8,1,2.5c0.6,0.6,1.4,1,2.3,1c0.4,0,0.9-0.1,1.3-0.2c0.4-0.2,0.8-0.4,1.1-0.6C227.4,251.4,227.7,250.9,228,250.4z
									 M228,248c-0.2-0.6-0.4-1.1-0.7-1.4c-0.3-0.4-0.7-0.6-1.1-0.9c-0.5-0.2-1-0.3-1.5-0.3c-0.9,0-1.6,0.3-2.2,0.8
									c-0.5,0.4-0.8,1-1,1.8L228,248L228,248z"/>
								<path class="st2" d="M238.7,250.4l0.9,0.5c-0.3,0.6-0.7,1.1-1.1,1.5c-0.4,0.4-0.9,0.7-1.4,0.9s-1.1,0.3-1.7,0.3
									c-1.4,0-2.5-0.5-3.3-1.4s-1.2-2-1.2-3.2c0-1.1,0.3-2.1,1-3c0.9-1.1,2-1.7,3.5-1.7s2.7,0.6,3.6,1.7c0.6,0.8,1,1.8,1,3h-7.9
									c0,1,0.3,1.8,1,2.5c0.6,0.6,1.4,1,2.3,1c0.4,0,0.9-0.1,1.3-0.2c0.4-0.2,0.8-0.4,1.1-0.6
									C238.1,251.4,238.4,250.9,238.7,250.4z M238.7,248c-0.2-0.6-0.4-1.1-0.7-1.4c-0.3-0.4-0.7-0.6-1.1-0.9
									c-0.5-0.2-1-0.3-1.5-0.3c-0.9,0-1.6,0.3-2.2,0.8c-0.5,0.4-0.8,1-1,1.8L238.7,248L238.7,248z"/>
								<path class="st2" d="M241.7,244.5h1.2v1.3c0.3-0.5,0.7-0.9,1.1-1.1c0.4-0.2,0.8-0.4,1.2-0.4c0.3,0,0.6,0.1,1,0.3l-0.6,0.9
									c-0.2-0.1-0.4-0.2-0.6-0.2c-0.4,0-0.7,0.2-1.1,0.5c-0.3,0.3-0.6,0.8-0.8,1.4c-0.1,0.5-0.2,1.5-0.2,3v3h-1.2L241.7,244.5
									L241.7,244.5z"/>
							</g>
						</g>
					</g>
				</g>
			</g>
		</g>
	</g>
</g>
<g id="blanco_v" class="st0">
	<g class="st1">
		<g>
			<g>
				<g>
					<g>
						<g>
							<path class="st4" d="M121.9,174.2c0.7,0,1.3-0.4,1.6-0.9l9-16.6c0.2,0,0.4,0,0.6,0c2.7,0,4.9-2.2,4.9-4.9
								c0-1.2-0.4-2.3-1.1-3.1c-0.8-0.9-1.9-1.5-3.1-1.7c-0.2,0-0.4,0-0.6,0c-2.7,0-4.9,2.2-4.9,4.9c0,1.2,0.4,2.3,1.1,3.2
								l-8.9,16.6v0.1c-0.1,0.2-0.2,0.5-0.2,0.8C120.1,173.3,120.9,174.2,121.9,174.2z M131.4,150.9L131.4,150.9
								c0.3-0.6,0.9-1,1.6-1c1,0,1.8,0.8,1.8,1.8c0,0.3-0.1,0.6-0.2,0.8l0,0c-0.3,0.5-0.9,0.9-1.6,0.9c-1,0-1.8-0.8-1.8-1.8
								C131.2,151.4,131.3,151.1,131.4,150.9z"/>
							<path class="st4" d="M180.4,141.5L180.4,141.5L169,120.3c0.2-0.5,0.2-1,0.2-1.5c0-2.7-2.2-4.9-4.9-4.9s-4.9,2.2-4.9,4.9
								c0,0.6,0.1,1.1,0.3,1.7l-11.9,22l-1.9,3.6l-16.4,30.4c-0.2,0-0.5-0.1-0.7-0.1c-2.1,0-3.9,1.3-4.6,3.2h-15.1
								c-0.4,0-0.7-0.3-0.7-0.7c0-0.1,0-0.2,0.1-0.3l2-3.7l0,0l17.3-32c0.2,0,0.4,0,0.6,0c2.7,0,4.9-2.2,4.9-4.9
								c0-1.2-0.4-2.3-1.2-3.2s-1.9-1.5-3.1-1.7c-0.2,0-0.4,0-0.6,0c-2.7,0-4.9,2.2-4.9,4.9c0,1.2,0.4,2.3,1.2,3.1l-19.1,35.3l0,0
								c0,0,0,0,0,0.1l-0.3,0.6c0,0,0,0,0,0.1c-0.2,0.5-0.3,1.1-0.3,1.6c0,2.4,1.9,4.3,4.3,4.3h15.2c0.7,1.7,2.5,3,4.5,3
								c2.7,0,4.9-2.2,4.9-4.9c0-1.1-0.4-2.2-1-3l17.4-32.2h27.6c1.7,0,3.2-1.4,3.2-3.2C180.7,142.4,180.6,141.9,180.4,141.5z
								 M126.7,137.3l0.1-0.2l0,0c0.3-0.5,0.9-0.8,1.5-0.8c1,0,1.8,0.8,1.8,1.8c0,0.3-0.1,0.6-0.2,0.8c0,0.1-0.1,0.1-0.1,0.2
								c-0.3,0.5-0.9,0.8-1.5,0.8c-1,0-1.8-0.8-1.8-1.8C126.5,137.8,126.6,137.5,126.7,137.3z M128.8,183.1c-1,0-1.8-0.8-1.8-1.8
								s0.8-1.8,1.8-1.8s1.8,0.8,1.8,1.8S129.8,183.1,128.8,183.1z M164.3,117c1,0,1.8,0.8,1.8,1.8c0,0.8-0.5,1.4-1.1,1.7
								c-0.2,0.1-0.4,0.1-0.7,0.1c-0.2,0-0.4,0-0.5-0.1c-0.7-0.2-1.2-0.9-1.2-1.7C162.5,117.8,163.3,117,164.3,117z M176.4,142.5
								h-24.5l9.9-18.3l0,0l0.5-0.9c0.6,0.3,1.3,0.4,2,0.4c0.8,0,1.5-0.2,2.1-0.5l0.5,1l8.7,16.2l0.9,1.7v0.1
								C176.7,142.4,176.5,142.5,176.4,142.5z"/>
							<path class="st4" d="M223.9,176.6c-0.2,0-0.4,0-0.6,0l-44.9-83.2l-2-3.8l0,0l-4-7.3l-2-3.8l0,0l-1.5-2.8
								c0.2-0.6,0.3-1.2,0.3-1.8c0-2.7-2.2-4.9-4.9-4.9s-4.9,2.2-4.9,4.9c0,0.7,0.1,1.4,0.4,1.9l-23.2,43l0,0l-0.1,0.2
								c-0.1,0.2-0.2,0.5-0.2,0.8c0,1,0.8,1.8,1.8,1.8c0.7,0,1.3-0.4,1.6-0.9l22.1-41l0.7-1.3c0.6,0.2,1.2,0.3,1.8,0.3
								c0.7,0,1.3-0.1,1.9-0.4l0.7,1.4l1.4,2.6l2,3.8l4,7.3l2,3.8l43.8,81.1c-0.3,0.4-0.6,0.9-0.8,1.4H213l-6.3-11.6
								c0.7-0.8,1.1-1.9,1.1-3.1c0-2.7-2.2-4.9-4.9-4.9c-0.2,0-0.4,0-0.6,0l-30-55.5l-2-3.8l-2.3-4.2c-0.7-1.3-2.1-2.2-3.7-2.2
								c-1.6,0-3,0.9-3.7,2.2c0,0,0,0.1-0.1,0.1l-2.2,4.1l-2,3.8l-4.3,8c-0.2,0-0.4,0-0.6,0c-2.7,0-4.9,2.2-4.9,4.9
								c0,1.2,0.4,2.3,1.2,3.2c0.8,0.9,1.9,1.5,3.1,1.7c0.2,0,0.4,0,0.6,0c2.7,0,4.9-2.2,4.9-4.9c0-1.2-0.4-2.3-1.1-3.1l3.2-6l2-3.8
								l1.4-2.6l2-3.6v-0.1c0.1-0.2,0.3-0.3,0.6-0.3s0.5,0.1,0.6,0.4l0,0l2,3.7l1.4,2.6l2,3.8l28.8,53.5c-0.7,0.8-1.1,1.9-1.1,3.1
								c0,2.7,2.2,4.9,4.9,4.9c0.2,0,0.4,0,0.6,0l5.4,9.9h-7.4l0,0c-0.3,0-0.7-0.2-0.8-0.5v-0.1l-2-3.8l-7.6-14.1
								c0.6-0.8,0.9-1.8,0.9-2.8c0-2.7-2.2-4.9-4.9-4.9c-2,0-3.7,1.2-4.4,2.9h-18.4c-1,0-1.8,0.8-1.8,1.8s0.8,1.8,1.8,1.8h18.2
								c0.7,1.9,2.5,3.3,4.6,3.3c0.3,0,0.6,0,1-0.1l8.9,16.5l0.6,1.1c0,0,0,0,0,0.1c0,0,0,0,0,0.1l0,0c0.8,1.4,2.2,2.3,3.9,2.3h17.8
								c0.7,1.8,2.5,3.1,4.5,3.1c2.7,0,4.9-2.2,4.9-4.9C228.8,178.8,226.6,176.6,223.9,176.6z M164.3,75.7c-1,0-1.8-0.8-1.8-1.8
								c0-0.8,0.6-1.5,1.3-1.7c0.1,0,0.3-0.1,0.4-0.1c0.1,0,0.2,0,0.4,0c0.8,0.2,1.4,0.9,1.4,1.8C166.1,74.9,165.3,75.7,164.3,75.7z
								 M153,118.2C153,118.2,153,118.3,153,118.2c-0.3,0.6-0.9,1-1.6,1c-1,0-1.8-0.8-1.8-1.8c0-0.3,0.1-0.6,0.2-0.8l0.1-0.1
								c0,0,0,0,0-0.1c0.3-0.5,0.9-0.8,1.5-0.8c1,0,1.8,0.8,1.8,1.8C153.2,117.7,153.2,118,153,118.2z M203,166.7
								c-0.6,0-1.2-0.3-1.5-0.8c0-0.1-0.1-0.1-0.1-0.2c-0.1-0.2-0.2-0.5-0.2-0.8c0-1,0.8-1.8,1.8-1.8c0.7,0,1.3,0.4,1.6,0.9
								c0.1,0.3,0.2,0.5,0.2,0.9C204.8,165.9,204,166.7,203,166.7z M187.1,160.2c-0.3,0-0.5-0.1-0.8-0.2c0,0-0.1,0-0.1-0.1
								c-0.6-0.3-0.9-0.9-0.9-1.6c0-1,0.8-1.8,1.8-1.8s1.8,0.8,1.8,1.8C188.8,159.4,188,160.2,187.1,160.2z M223.9,183.3
								c-1,0-1.8-0.8-1.8-1.8s0.8-1.8,1.8-1.8c0.6,0,1.2,0.3,1.5,0.8c0,0.1,0.1,0.1,0.1,0.2c0.1,0.2,0.2,0.5,0.2,0.8
								C225.7,182.5,224.9,183.3,223.9,183.3z"/>
						</g>
						<g>
							<path class="st4" d="M67.6,208h4l7.9,20.5h-4.1l-1.6-4.2h-8.4l-1.7,4.2h-4.1L67.6,208z M69.6,213.5l-2.8,7h5.5L69.6,213.5z"
								/>
							<path class="st4" d="M91.5,215.5l-2.4,2.4c-1-0.9-1.8-1.4-2.6-1.4c-0.4,0-0.8,0.1-1,0.3s-0.4,0.4-0.4,0.7
								c0,0.2,0.1,0.4,0.2,0.6c0.2,0.2,0.5,0.4,1.1,0.7l1.4,0.7c1.5,0.7,2.5,1.5,3,2.2s0.8,1.6,0.8,2.7c0,1.3-0.5,2.5-1.5,3.4
								s-2.3,1.4-4,1.4c-2.2,0-4-0.9-5.3-2.6l2.3-2.6c0.4,0.5,1,0.9,1.6,1.3c0.6,0.3,1.1,0.5,1.6,0.5s0.9-0.1,1.2-0.4
								c0.3-0.2,0.5-0.5,0.5-0.8c0-0.6-0.6-1.2-1.7-1.7l-1.3-0.6c-2.5-1.2-3.7-2.8-3.7-4.6c0-1.2,0.5-2.2,1.4-3.1
								c0.9-0.9,2.1-1.3,3.6-1.3c1,0,1.9,0.2,2.8,0.6C90.1,214.1,90.9,214.7,91.5,215.5z"/>
							<path class="st4" d="M105.6,207.5h3.8v21h-3.8V227c-0.7,0.7-1.5,1.2-2.2,1.5s-1.6,0.5-2.4,0.5c-2,0-3.7-0.8-5.1-2.3
								s-2.1-3.4-2.1-5.7s0.7-4.3,2.1-5.8s3.1-2.2,5-2.2c0.9,0,1.8,0.2,2.6,0.5c0.8,0.3,1.5,0.9,2.2,1.5L105.6,207.5L105.6,207.5z
								 M101.6,216.5c-1.2,0-2.2,0.4-2.9,1.2c-0.8,0.8-1.2,1.9-1.2,3.2s0.4,2.4,1.2,3.2c0.8,0.8,1.8,1.3,2.9,1.3
								c1.2,0,2.2-0.4,3-1.2s1.2-1.9,1.2-3.3c0-1.3-0.4-2.4-1.2-3.2S102.8,216.5,101.6,216.5z"/>
							<path class="st4" d="M112.6,213.4h3.3v1.9c0.4-0.8,0.8-1.3,1.4-1.7s1.2-0.6,1.9-0.6c0.5,0,1,0.1,1.5,0.4l-1.2,3.3
								c-0.4-0.2-0.8-0.3-1.1-0.3c-0.6,0-1.1,0.4-1.5,1.1c-0.4,0.7-0.6,2.1-0.6,4.3v0.7v6.1h-3.8L112.6,213.4L112.6,213.4z"/>
							<path class="st4" d="M122.5,213.4h3.9v7.3c0,1.4,0.1,2.4,0.3,3c0.2,0.6,0.5,1,0.9,1.3c0.4,0.3,1,0.5,1.6,0.5s1.2-0.2,1.6-0.5
								c0.4-0.3,0.8-0.7,1-1.3c0.2-0.4,0.2-1.4,0.2-2.8v-7.4h3.8v6.4c0,2.7-0.2,4.5-0.6,5.4c-0.5,1.2-1.3,2.1-2.3,2.7
								c-1,0.6-2.3,1-3.8,1c-1.7,0-3-0.4-4-1.1c-1-0.7-1.8-1.8-2.2-3.1c-0.3-0.9-0.4-2.6-0.4-5C122.5,219.8,122.5,213.4,122.5,213.4
								z M129.8,205.1h4.5l-5.1,5.5h-2.7L129.8,205.1z"/>
							<path class="st4" d="M143.2,207.5v7.5c0.7-0.7,1.4-1.2,2.2-1.5s1.7-0.5,2.6-0.5c2,0,3.7,0.7,5.1,2.2c1.4,1.5,2.1,3.4,2.1,5.8
								c0,2.3-0.7,4.2-2.1,5.7c-1.4,1.5-3.1,2.3-5.1,2.3c-0.9,0-1.7-0.2-2.4-0.5c-0.8-0.3-1.5-0.8-2.2-1.5v1.6h-3.8v-21h3.6
								L143.2,207.5L143.2,207.5z M147.2,216.5c-1.2,0-2.2,0.4-3,1.2s-1.2,1.9-1.2,3.2s0.4,2.4,1.2,3.3c0.8,0.8,1.8,1.2,3,1.2
								s2.1-0.4,2.9-1.3c0.8-0.8,1.2-1.9,1.2-3.2s-0.4-2.4-1.2-3.2C149.4,216.9,148.4,216.5,147.2,216.5z"/>
							<path class="st4" d="M169.2,213.4h3.8v15.2h-3.8V227c-0.7,0.7-1.5,1.2-2.2,1.5s-1.6,0.5-2.4,0.5c-2,0-3.7-0.8-5.1-2.3
								c-1.4-1.5-2.1-3.4-2.1-5.7s0.7-4.3,2.1-5.8c1.4-1.5,3.1-2.2,5-2.2c0.9,0,1.8,0.2,2.6,0.5s1.5,0.9,2.2,1.5v-1.6H169.2z
								 M165.2,216.5c-1.2,0-2.2,0.4-2.9,1.2c-0.8,0.8-1.2,1.9-1.2,3.2s0.4,2.4,1.2,3.2s1.8,1.3,2.9,1.3c1.2,0,2.2-0.4,3-1.2
								s1.2-1.9,1.2-3.3c0-1.3-0.4-2.4-1.2-3.2S166.4,216.5,165.2,216.5z"/>
							<path class="st4" d="M176.5,207.5h3.8v21h-3.8V207.5z"/>
							<path class="st4" d="M202,210.8l-2.9,2.6c-1-1.4-2.1-2.1-3.1-2.1c-0.5,0-0.9,0.1-1.3,0.4c-0.3,0.3-0.5,0.6-0.5,0.9
								c0,0.3,0.1,0.7,0.3,1c0.3,0.4,1.3,1.3,2.9,2.6c1.5,1.2,2.4,2,2.7,2.4c0.8,0.8,1.4,1.6,1.7,2.3s0.5,1.5,0.5,2.4
								c0,1.7-0.6,3.1-1.7,4.2c-1.2,1.1-2.7,1.6-4.6,1.6c-1.5,0-2.7-0.4-3.8-1.1c-1.1-0.7-2-1.8-2.8-3.4l3.3-2
								c1,1.8,2.1,2.7,3.4,2.7c0.7,0,1.2-0.2,1.7-0.6c0.5-0.4,0.7-0.8,0.7-1.4c0-0.5-0.2-0.9-0.5-1.4s-1.1-1.2-2.3-2.1
								c-2.2-1.8-3.7-3.2-4.3-4.2c-0.7-1-1-2-1-3c0-1.4,0.5-2.6,1.6-3.7c1.1-1,2.4-1.5,4-1.5c1,0,2,0.2,2.9,0.7
								C199.9,208.7,200.9,209.6,202,210.8z"/>
							<path class="st4" d="M205.1,213.4h3.9v7.3c0,1.4,0.1,2.4,0.3,3s0.5,1,0.9,1.3s1,0.5,1.6,0.5s1.2-0.2,1.6-0.5
								c0.4-0.3,0.8-0.7,1-1.3c0.2-0.4,0.2-1.4,0.2-2.8v-7.4h3.8v6.4c0,2.7-0.2,4.5-0.6,5.4c-0.5,1.2-1.3,2.1-2.3,2.7
								c-1,0.6-2.3,1-3.8,1c-1.7,0-3-0.4-4-1.1c-1-0.7-1.8-1.8-2.2-3.1c-0.3-0.9-0.4-2.6-0.4-5V213.4z"/>
							<path class="st4" d="M233.1,213.4h3.8v15.2h-3.8V227c-0.7,0.7-1.5,1.2-2.2,1.5s-1.6,0.5-2.4,0.5c-2,0-3.7-0.8-5.1-2.3
								c-1.4-1.5-2.1-3.4-2.1-5.7s0.7-4.3,2.1-5.8c1.4-1.5,3.1-2.2,5-2.2c0.9,0,1.8,0.2,2.6,0.5s1.5,0.9,2.2,1.5v-1.6H233.1z
								 M229.1,216.5c-1.2,0-2.2,0.4-2.9,1.2c-0.8,0.8-1.2,1.9-1.2,3.2s0.4,2.4,1.2,3.2s1.8,1.3,2.9,1.3c1.2,0,2.2-0.4,3-1.2
								s1.2-1.9,1.2-3.3c0-1.3-0.4-2.4-1.2-3.2S230.3,216.5,229.1,216.5z M230.1,205.1h4.5l-5.1,5.5h-2.7L230.1,205.1z"/>
							<path class="st4" d="M240.1,213.4h3.3v1.9c0.4-0.8,0.8-1.3,1.4-1.7c0.6-0.4,1.2-0.6,1.9-0.6c0.5,0,1,0.1,1.5,0.4l-1.2,3.3
								c-0.4-0.2-0.8-0.3-1.1-0.3c-0.6,0-1.1,0.4-1.5,1.1c-0.4,0.7-0.6,2.1-0.6,4.3v0.7v6.1H240v-15.2H240.1z"/>
							<path class="st4" d="M264.6,222.1h-12.2c0.2,1.1,0.6,1.9,1.4,2.6c0.8,0.6,1.7,1,2.9,1c1.4,0,2.6-0.5,3.7-1.5l3.2,1.5
								c-0.8,1.1-1.8,2-2.9,2.5s-2.4,0.8-4,0.8c-2.4,0-4.3-0.8-5.8-2.3s-2.2-3.4-2.2-5.6c0-2.3,0.7-4.2,2.2-5.8
								c1.5-1.5,3.4-2.3,5.6-2.3c2.4,0,4.3,0.8,5.8,2.3s2.2,3.6,2.2,6.1L264.6,222.1z M260.7,219.1c-0.3-0.8-0.7-1.5-1.5-2.1
								c-0.7-0.5-1.6-0.8-2.6-0.8c-1.1,0-2,0.3-2.8,0.9c-0.5,0.4-1,1-1.4,2L260.7,219.1L260.7,219.1z"/>
							<path class="st4" d="M266.3,213.4h11.6l-6.8,12h6.4v3.2h-12.3l6.9-12h-5.8L266.3,213.4L266.3,213.4z"/>
						</g>
						<g>
							<path class="st4" d="M82.8,239.8l-6,16.8h-1.5l6-16.8H82.8z"/>
							<path class="st4" d="M89.6,239.8l-6,16.8h-1.5l6-16.8H89.6z"/>
							<path class="st4" d="M253.6,239.8l-6,16.8h-1.5l6-16.8H253.6z"/>
							<path class="st4" d="M260.5,239.8l-6,16.8H253l6-16.8H260.5z"/>
							<g>
								<path class="st4" d="M101.9,243.6l-0.9,0.7c-0.5-0.7-1.1-1.2-1.9-1.5c-0.7-0.3-1.5-0.5-2.4-0.5s-1.8,0.2-2.6,0.7
									c-0.8,0.5-1.4,1.1-1.9,1.8c-0.4,0.8-0.7,1.6-0.7,2.6c0,1.4,0.5,2.6,1.5,3.6s2.2,1.4,3.7,1.4c1.7,0,3-0.6,4.2-1.9l0.9,0.7
									c-0.6,0.8-1.3,1.3-2.2,1.7s-1.9,0.6-3,0.6c-2.1,0-3.7-0.7-4.9-2.1c-1-1.2-1.5-2.6-1.5-4.2c0-1.7,0.6-3.2,1.8-4.4
									c1.2-1.2,2.7-1.8,4.6-1.8c1.1,0,2.1,0.2,3,0.7C100.6,242.2,101.3,242.9,101.9,243.6z"/>
								<path class="st4" d="M108.2,244.3c1.3,0,2.5,0.5,3.4,1.5c0.8,0.9,1.2,1.9,1.2,3.2c0,1.2-0.4,2.3-1.3,3.2s-1.9,1.4-3.3,1.4
									c-1.3,0-2.4-0.5-3.3-1.4s-1.3-2-1.3-3.2s0.4-2.3,1.2-3.2C105.7,244.8,106.8,244.3,108.2,244.3z M108.2,245.4
									c-0.9,0-1.7,0.3-2.4,1c-0.7,0.7-1,1.5-1,2.5c0,0.6,0.2,1.2,0.5,1.8c0.3,0.5,0.7,1,1.2,1.3s1.1,0.4,1.7,0.4s1.2-0.1,1.7-0.4
									c0.5-0.3,0.9-0.7,1.2-1.3c0.3-0.5,0.5-1.1,0.5-1.8c0-1-0.3-1.8-1-2.5C109.9,245.8,109.1,245.4,108.2,245.4z"/>
								<path class="st4" d="M114.8,244.5h1.1v1.5c0.4-0.6,0.8-1,1.2-1.2c0.6-0.3,1.2-0.5,1.8-0.5c0.4,0,0.8,0.1,1.2,0.2
									c0.4,0.2,0.7,0.4,0.9,0.7c0.2,0.3,0.5,0.7,0.6,1.2c0.4-0.7,0.8-1.2,1.4-1.6c0.6-0.4,1.2-0.5,1.8-0.5c0.6,0,1.1,0.2,1.6,0.5
									s0.8,0.7,1,1.3c0.2,0.5,0.3,1.4,0.3,2.5v4.8h-1.2v-4.8c0-0.9-0.1-1.6-0.2-1.9c-0.1-0.4-0.4-0.6-0.7-0.8
									c-0.3-0.2-0.7-0.3-1.2-0.3s-1,0.2-1.5,0.5s-0.8,0.8-1,1.3s-0.3,1.4-0.3,2.7v3.4h-1.1V249c0-1.1-0.1-1.8-0.2-2.2
									s-0.4-0.7-0.7-0.9c-0.3-0.2-0.7-0.3-1.2-0.3s-1,0.2-1.5,0.5s-0.8,0.7-1,1.3c-0.2,0.5-0.3,1.3-0.3,2.4v3.7h-1.1v-9H114.8z"/>
								<path class="st4" d="M130.3,244.5h1.1v1.6c0.4-0.6,1-1.1,1.5-1.4s1.2-0.5,1.9-0.5c1.2,0,2.3,0.4,3.2,1.3
									c0.9,0.9,1.3,2,1.3,3.2c0,1.3-0.4,2.4-1.3,3.3c-0.9,0.9-1.9,1.3-3.2,1.3c-0.7,0-1.3-0.1-1.9-0.4c-0.6-0.3-1.1-0.7-1.6-1.3
									v4.7h-1.1v-11.8L130.3,244.5L130.3,244.5z M134.8,245.4c-1,0-1.8,0.3-2.5,1s-1,1.5-1,2.5c0,0.7,0.1,1.3,0.4,1.8
									c0.3,0.5,0.7,1,1.3,1.3s1.1,0.5,1.8,0.5c0.6,0,1.2-0.2,1.7-0.5s1-0.8,1.3-1.3c0.3-0.6,0.5-1.2,0.5-1.8s-0.2-1.2-0.5-1.8
									s-0.7-1-1.3-1.3C136,245.5,135.4,245.4,134.8,245.4z"/>
								<path class="st4" d="M141.4,244.5h1.1v4.1c0,1,0.1,1.7,0.2,2.1c0.2,0.5,0.5,1,0.9,1.3c0.5,0.3,1,0.5,1.6,0.5
									s1.2-0.2,1.6-0.5c0.4-0.3,0.7-0.7,0.9-1.2c0.1-0.3,0.2-1.1,0.2-2.1v-4.1h1.2v4.3c0,1.2-0.1,2.1-0.4,2.7
									c-0.3,0.6-0.7,1.1-1.3,1.4c-0.6,0.3-1.3,0.5-2.1,0.5c-0.9,0-1.6-0.2-2.1-0.5c-0.6-0.3-1-0.8-1.3-1.4
									c-0.3-0.6-0.4-1.6-0.4-2.8L141.4,244.5L141.4,244.5z"/>
								<path class="st4" d="M152.5,241.3h1.1v3.2h1.8v1h-1.8v7.8h-1.1v-7.8H151v-1h1.5V241.3z"/>
								<path class="st4" d="M164.5,250.4l0.9,0.5c-0.3,0.6-0.7,1.1-1.1,1.5c-0.4,0.4-0.9,0.7-1.4,0.9s-1.1,0.3-1.7,0.3
									c-1.4,0-2.5-0.5-3.3-1.4s-1.2-2-1.2-3.2c0-1.1,0.3-2.1,1-3c0.9-1.1,2-1.7,3.5-1.7s2.7,0.6,3.6,1.7c0.6,0.8,1,1.8,1,3h-7.9
									c0,1,0.3,1.8,1,2.5c0.6,0.6,1.4,1,2.3,1c0.4,0,0.9-0.1,1.3-0.2c0.4-0.2,0.8-0.4,1.1-0.6
									C163.8,251.4,164.2,250.9,164.5,250.4z M164.5,248c-0.2-0.6-0.4-1.1-0.7-1.4c-0.3-0.4-0.7-0.6-1.1-0.9
									c-0.5-0.2-1-0.3-1.5-0.3c-0.9,0-1.6,0.3-2.2,0.8c-0.5,0.4-0.8,1-1,1.8L164.5,248L164.5,248z"/>
								<path class="st4" d="M167.4,244.5h1.2v1.3c0.3-0.5,0.7-0.9,1.1-1.1c0.4-0.2,0.8-0.4,1.2-0.4c0.3,0,0.6,0.1,1,0.3l-0.6,0.9
									c-0.2-0.1-0.4-0.2-0.6-0.2c-0.4,0-0.7,0.2-1.1,0.5c-0.3,0.3-0.6,0.8-0.8,1.4c-0.1,0.5-0.2,1.5-0.2,3v3h-1.2L167.4,244.5
									L167.4,244.5z"/>
								<path class="st4" d="M177.5,241.4h6.8v1.2h-5.6v3.7h5.6v1.2h-5.6v4.6h5.6v1.2h-6.7v-11.9H177.5z"/>
								<path class="st4" d="M186.2,244.5h1.1v1.6c0.5-0.6,0.9-1,1.5-1.3c0.5-0.3,1.1-0.4,1.8-0.4s1.2,0.2,1.7,0.5s0.9,0.8,1.1,1.3
									c0.2,0.6,0.4,1.4,0.4,2.6v4.5h-1.1v-4.2c0-1,0-1.7-0.1-2c-0.1-0.6-0.4-1-0.8-1.3c-0.4-0.3-0.9-0.4-1.4-0.4
									c-0.7,0-1.3,0.2-1.8,0.7s-0.9,1-1.1,1.7c-0.1,0.4-0.2,1.2-0.2,2.4v3.2h-1.1L186.2,244.5L186.2,244.5z"/>
								<path class="st4" d="M203.8,244.5h1.1v7c0,1.2-0.1,2.1-0.3,2.7c-0.3,0.8-0.8,1.4-1.5,1.9c-0.7,0.4-1.6,0.7-2.6,0.7
									c-0.8,0-1.4-0.1-2-0.3c-0.6-0.2-1.1-0.5-1.5-0.9s-0.7-0.9-1-1.6h1.2c0.3,0.6,0.8,1,1.3,1.3s1.2,0.4,2,0.4s1.4-0.1,1.9-0.4
									c0.5-0.3,0.9-0.6,1.1-1.1c0.2-0.4,0.3-1.1,0.3-2.1v-0.5c-0.4,0.5-0.9,0.9-1.6,1.2c-0.6,0.3-1.3,0.4-1.9,0.4
									c-0.8,0-1.6-0.2-2.3-0.6c-0.7-0.4-1.3-0.9-1.6-1.6c-0.4-0.7-0.6-1.4-0.6-2.2s0.2-1.6,0.6-2.3c0.4-0.7,1-1.3,1.7-1.7
									s1.5-0.6,2.3-0.6c0.7,0,1.3,0.1,1.8,0.4c0.6,0.3,1.1,0.7,1.6,1.3V244.5z M200.5,245.4c-0.6,0-1.2,0.2-1.8,0.5
									c-0.5,0.3-1,0.7-1.3,1.3c-0.3,0.5-0.5,1.1-0.5,1.8c0,1,0.3,1.8,1,2.4c0.6,0.6,1.5,0.9,2.5,0.9s1.9-0.3,2.5-0.9
									c0.6-0.6,0.9-1.4,0.9-2.5c0-0.7-0.1-1.2-0.4-1.8c-0.3-0.5-0.7-0.9-1.2-1.2C201.6,245.5,201.1,245.4,200.5,245.4z"/>
								<path class="st4" d="M207.7,240.9c0.3,0,0.5,0.1,0.7,0.3s0.3,0.4,0.3,0.7s-0.1,0.5-0.3,0.7s-0.4,0.3-0.7,0.3
									s-0.5-0.1-0.6-0.3c-0.2-0.2-0.3-0.4-0.3-0.7s0.1-0.5,0.3-0.7C207.2,241,207.5,240.9,207.7,240.9z M207.2,244.5h1.1v8.8h-1.1
									V244.5z"/>
								<path class="st4" d="M210.6,244.5h1.1v1.6c0.5-0.6,0.9-1,1.5-1.3c0.5-0.3,1.1-0.4,1.8-0.4s1.2,0.2,1.7,0.5s0.9,0.8,1.1,1.3
									c0.2,0.6,0.4,1.4,0.4,2.6v4.5h-1.1v-4.2c0-1,0-1.7-0.1-2c-0.1-0.6-0.4-1-0.8-1.3c-0.4-0.3-0.9-0.4-1.4-0.4
									c-0.7,0-1.3,0.2-1.8,0.7s-0.9,1-1.1,1.7c-0.1,0.4-0.2,1.2-0.2,2.4v3.2h-1.1L210.6,244.5L210.6,244.5z"/>
								<path class="st4" d="M228,250.4l0.9,0.5c-0.3,0.6-0.7,1.1-1.1,1.5c-0.4,0.4-0.9,0.7-1.4,0.9s-1.1,0.3-1.7,0.3
									c-1.4,0-2.5-0.5-3.3-1.4s-1.2-2-1.2-3.2c0-1.1,0.3-2.1,1-3c0.9-1.1,2-1.7,3.5-1.7s2.7,0.6,3.6,1.7c0.6,0.8,1,1.8,1,3h-7.9
									c0,1,0.3,1.8,1,2.5c0.6,0.6,1.4,1,2.3,1c0.4,0,0.9-0.1,1.3-0.2c0.4-0.2,0.8-0.4,1.1-0.6C227.4,251.4,227.7,250.9,228,250.4z
									 M228,248c-0.2-0.6-0.4-1.1-0.7-1.4c-0.3-0.4-0.7-0.6-1.1-0.9c-0.5-0.2-1-0.3-1.5-0.3c-0.9,0-1.6,0.3-2.2,0.8
									c-0.5,0.4-0.8,1-1,1.8L228,248L228,248z"/>
								<path class="st4" d="M238.7,250.4l0.9,0.5c-0.3,0.6-0.7,1.1-1.1,1.5c-0.4,0.4-0.9,0.7-1.4,0.9s-1.1,0.3-1.7,0.3
									c-1.4,0-2.5-0.5-3.3-1.4s-1.2-2-1.2-3.2c0-1.1,0.3-2.1,1-3c0.9-1.1,2-1.7,3.5-1.7s2.7,0.6,3.6,1.7c0.6,0.8,1,1.8,1,3h-7.9
									c0,1,0.3,1.8,1,2.5c0.6,0.6,1.4,1,2.3,1c0.4,0,0.9-0.1,1.3-0.2c0.4-0.2,0.8-0.4,1.1-0.6
									C238.1,251.4,238.4,250.9,238.7,250.4z M238.7,248c-0.2-0.6-0.4-1.1-0.7-1.4c-0.3-0.4-0.7-0.6-1.1-0.9
									c-0.5-0.2-1-0.3-1.5-0.3c-0.9,0-1.6,0.3-2.2,0.8c-0.5,0.4-0.8,1-1,1.8L238.7,248L238.7,248z"/>
								<path class="st4" d="M241.7,244.5h1.2v1.3c0.3-0.5,0.7-0.9,1.1-1.1c0.4-0.2,0.8-0.4,1.2-0.4c0.3,0,0.6,0.1,1,0.3l-0.6,0.9
									c-0.2-0.1-0.4-0.2-0.6-0.2c-0.4,0-0.7,0.2-1.1,0.5c-0.3,0.3-0.6,0.8-0.8,1.4c-0.1,0.5-0.2,1.5-0.2,3v3h-1.2L241.7,244.5
									L241.7,244.5z"/>
							</g>
						</g>
					</g>
				</g>
			</g>
		</g>
	</g>
</g>
<g id="original_h" class="st0">
	<g class="st1">
		<g>
			<g>
				<g>
					<path class="st2" d="M122.6,145.4h3.1l6.1,15.8h-3.1l-1.2-3.3H121l-1.3,3.3h-3.1L122.6,145.4z M124.2,149.6l-2.1,5.4h4.2
						L124.2,149.6z"/>
					<path class="st2" d="M141,151.2l-1.8,1.8c-0.7-0.7-1.4-1.1-2-1.1c-0.3,0-0.6,0.1-0.8,0.2c-0.2,0.1-0.3,0.3-0.3,0.5
						s0.1,0.3,0.2,0.4c0.1,0.1,0.4,0.3,0.9,0.5l1.1,0.5c1.1,0.6,1.9,1.1,2.3,1.7c0.4,0.6,0.6,1.3,0.6,2c0,1-0.4,1.9-1.1,2.6
						c-0.8,0.7-1.8,1-3.1,1c-1.7,0-3.1-0.7-4.1-2l1.8-2c0.3,0.4,0.7,0.7,1.2,1c0.5,0.2,0.9,0.4,1.2,0.4c0.4,0,0.7-0.1,0.9-0.3
						s0.4-0.4,0.4-0.6c0-0.5-0.4-0.9-1.3-1.3l-1-0.5c-1.9-1-2.8-2.1-2.8-3.6c0-0.9,0.4-1.7,1.1-2.4c0.7-0.7,1.6-1,2.7-1
						c0.8,0,1.5,0.2,2.1,0.5C140,150.1,140.6,150.6,141,151.2z"/>
					<path class="st2" d="M151.9,145h2.9v16.2h-2.9V160c-0.6,0.5-1.1,0.9-1.7,1.2c-0.6,0.2-1.2,0.4-1.9,0.4c-1.5,0-2.8-0.6-3.9-1.8
						c-1.1-1.2-1.7-2.6-1.7-4.4c0-1.8,0.5-3.3,1.6-4.4c1.1-1.2,2.4-1.7,3.9-1.7c0.7,0,1.4,0.1,2,0.4c0.6,0.3,1.2,0.7,1.7,1.2
						L151.9,145L151.9,145z M148.8,152c-0.9,0-1.7,0.3-2.3,1c-0.6,0.6-0.9,1.5-0.9,2.5s0.3,1.8,0.9,2.5c0.6,0.7,1.4,1,2.3,1
						c0.9,0,1.7-0.3,2.3-1c0.6-0.6,0.9-1.5,0.9-2.5s-0.3-1.8-0.9-2.5C150.5,152.3,149.7,152,148.8,152z"/>
					<path class="st2" d="M157.3,149.5h2.5v1.5c0.3-0.6,0.6-1,1.1-1.3s0.9-0.5,1.5-0.5c0.4,0,0.8,0.1,1.2,0.3l-0.9,2.5
						c-0.3-0.2-0.6-0.3-0.9-0.3c-0.5,0-0.8,0.3-1.1,0.8c-0.3,0.6-0.5,1.7-0.5,3.3v0.6v4.7h-2.9L157.3,149.5L157.3,149.5z"/>
					<path class="st2" d="M165,149.5h3v5.6c0,1.1,0.1,1.9,0.2,2.3c0.2,0.4,0.4,0.8,0.7,1s0.7,0.4,1.2,0.4s0.9-0.1,1.2-0.3
						s0.6-0.6,0.8-1c0.1-0.3,0.2-1.1,0.2-2.2v-5.7h2.9v5c0,2-0.2,3.4-0.5,4.2c-0.4,0.9-1,1.6-1.7,2.1c-0.8,0.5-1.7,0.7-2.9,0.7
						c-1.3,0-2.3-0.3-3.1-0.9c-0.8-0.6-1.4-1.4-1.7-2.4c-0.2-0.7-0.3-2-0.3-3.9L165,149.5L165,149.5z M170.6,143.2h3.5l-3.9,4.2H168
						L170.6,143.2z"/>
					<path class="st2" d="M180.9,145v5.8c0.5-0.5,1.1-0.9,1.7-1.2s1.3-0.4,2-0.4c1.5,0,2.8,0.6,3.9,1.7c1.1,1.2,1.6,2.6,1.6,4.4
						c0,1.7-0.6,3.2-1.7,4.4c-1.1,1.2-2.4,1.8-3.9,1.8c-0.7,0-1.3-0.1-1.9-0.4c-0.6-0.2-1.2-0.6-1.7-1.2v1.2H178V145H180.9z
						 M184,152c-0.9,0-1.7,0.3-2.3,0.9c-0.6,0.6-0.9,1.5-0.9,2.5s0.3,1.9,0.9,2.5c0.6,0.6,1.4,1,2.3,1c0.9,0,1.7-0.3,2.3-1
						s0.9-1.5,0.9-2.5s-0.3-1.8-0.9-2.5C185.7,152.3,185,152,184,152z"/>
					<path class="st2" d="M201,149.5h2.9v11.7H201V160c-0.6,0.5-1.1,0.9-1.7,1.2c-0.6,0.2-1.2,0.4-1.9,0.4c-1.5,0-2.8-0.6-3.9-1.8
						c-1.1-1.2-1.7-2.6-1.7-4.4c0-1.8,0.5-3.3,1.6-4.4c1.1-1.2,2.4-1.7,3.9-1.7c0.7,0,1.4,0.1,2,0.4c0.6,0.3,1.2,0.7,1.7,1.2
						L201,149.5L201,149.5z M197.9,152c-0.9,0-1.7,0.3-2.3,1c-0.6,0.6-0.9,1.5-0.9,2.5s0.3,1.8,0.9,2.5c0.6,0.7,1.4,1,2.3,1
						c0.9,0,1.7-0.3,2.3-1c0.6-0.6,0.9-1.5,0.9-2.5s-0.3-1.8-0.9-2.5S198.8,152,197.9,152z"/>
					<path class="st2" d="M206.6,145h2.9v16.2h-2.9V145z"/>
					<path class="st2" d="M227,147.6l-2.2,2c-0.8-1.1-1.6-1.6-2.4-1.6c-0.4,0-0.7,0.1-1,0.3s-0.4,0.5-0.4,0.7c0,0.3,0.1,0.5,0.3,0.8
						s1,1,2.2,2s1.8,1.6,2.1,1.8c0.6,0.6,1,1.2,1.3,1.8s0.4,1.2,0.4,1.8c0,1.3-0.4,2.4-1.3,3.2c-0.9,0.8-2.1,1.3-3.5,1.3
						c-1.1,0-2.1-0.3-2.9-0.8c-0.8-0.6-1.6-1.4-2.2-2.6l2.5-1.5c0.8,1.4,1.6,2.1,2.6,2.1c0.5,0,1-0.2,1.3-0.5c0.4-0.3,0.5-0.6,0.5-1
						s-0.1-0.7-0.4-1.1c-0.3-0.4-0.9-0.9-1.8-1.6c-1.7-1.4-2.8-2.5-3.3-3.3s-0.8-1.5-0.8-2.3c0-1.1,0.4-2,1.3-2.8
						c0.8-0.8,1.9-1.2,3.1-1.2c0.8,0,1.5,0.2,2.3,0.5C225.4,145.9,226.2,146.6,227,147.6z"/>
					<path class="st2" d="M229.4,149.5h3v5.6c0,1.1,0.1,1.9,0.2,2.3c0.2,0.4,0.4,0.8,0.7,1s0.7,0.4,1.2,0.4s0.9-0.1,1.2-0.3
						s0.6-0.6,0.8-1c0.1-0.3,0.2-1.1,0.2-2.2v-5.7h2.9v5c0,2-0.2,3.4-0.5,4.2c-0.4,0.9-1,1.6-1.7,2.1c-0.8,0.5-1.7,0.7-2.9,0.7
						c-1.3,0-2.3-0.3-3.1-0.9c-0.8-0.6-1.4-1.4-1.7-2.4c-0.2-0.7-0.3-2-0.3-3.9L229.4,149.5L229.4,149.5z"/>
					<path class="st2" d="M251,149.5h2.9v11.7H251V160c-0.6,0.5-1.1,0.9-1.7,1.2c-0.6,0.2-1.2,0.4-1.9,0.4c-1.5,0-2.8-0.6-3.9-1.8
						c-1.1-1.2-1.7-2.6-1.7-4.4c0-1.8,0.5-3.3,1.6-4.4c1.1-1.2,2.4-1.7,3.9-1.7c0.7,0,1.4,0.1,2,0.4c0.6,0.3,1.2,0.7,1.7,1.2
						L251,149.5L251,149.5z M247.9,152c-0.9,0-1.7,0.3-2.3,1c-0.6,0.6-0.9,1.5-0.9,2.5s0.3,1.8,0.9,2.5c0.6,0.7,1.4,1,2.3,1
						c0.9,0,1.7-0.3,2.3-1c0.6-0.6,0.9-1.5,0.9-2.5s-0.3-1.8-0.9-2.5S248.8,152,247.9,152z M248.7,143.2h3.5l-3.9,4.2h-2.1
						L248.7,143.2z"/>
					<path class="st2" d="M256.4,149.5h2.5v1.5c0.3-0.6,0.6-1,1.1-1.3s0.9-0.5,1.5-0.5c0.4,0,0.8,0.1,1.2,0.3l-0.9,2.5
						c-0.3-0.2-0.6-0.3-0.9-0.3c-0.5,0-0.8,0.3-1.1,0.8c-0.3,0.6-0.5,1.7-0.5,3.3v0.6v4.7h-2.9L256.4,149.5L256.4,149.5z"/>
					<path class="st2" d="M275.3,156.3h-9.4c0.1,0.8,0.5,1.5,1.1,2s1.3,0.7,2.3,0.7c1.1,0,2-0.4,2.8-1.2l2.5,1.2
						c-0.6,0.9-1.4,1.5-2.2,1.9s-1.9,0.6-3.1,0.6c-1.8,0-3.3-0.6-4.5-1.7c-1.2-1.2-1.7-2.6-1.7-4.4c0-1.8,0.6-3.3,1.7-4.5
						c1.2-1.2,2.6-1.8,4.3-1.8c1.8,0,3.3,0.6,4.5,1.8s1.7,2.7,1.7,4.7L275.3,156.3z M272.3,153.9c-0.2-0.7-0.6-1.2-1.1-1.6
						c-0.6-0.4-1.2-0.6-2-0.6s-1.5,0.2-2.2,0.7c-0.4,0.3-0.7,0.8-1.1,1.5L272.3,153.9L272.3,153.9z"/>
					<path class="st2" d="M276.6,149.5h9l-5.3,9.2h5v2.5h-9.5l5.3-9.2h-4.5V149.5z"/>
				</g>
				<g>
					<path class="st3" d="M135.7,169.2l-4.6,12.9h-1.2l4.6-12.9H135.7z"/>
					<path class="st3" d="M140.9,169.2l-4.6,12.9h-1.2l4.6-12.9H140.9z"/>
					<path class="st3" d="M266.9,169.2l-4.6,12.9h-1.2l4.6-12.9H266.9z"/>
					<path class="st3" d="M272.2,169.2l-4.6,12.9h-1.2l4.6-12.9H272.2z"/>
					<g>
						<path class="st3" d="M150.3,172.2l-0.7,0.6c-0.4-0.5-0.9-0.9-1.4-1.2c-0.6-0.3-1.2-0.4-1.8-0.4c-0.7,0-1.4,0.2-2,0.5
							s-1.1,0.8-1.4,1.4c-0.3,0.6-0.5,1.2-0.5,2c0,1.1,0.4,2,1.1,2.8s1.7,1.1,2.9,1.1c1.3,0,2.3-0.5,3.2-1.5l0.7,0.5
							c-0.5,0.6-1,1-1.7,1.3s-1.4,0.5-2.3,0.5c-1.6,0-2.8-0.5-3.8-1.6c-0.8-0.9-1.2-2-1.2-3.2c0-1.3,0.5-2.5,1.4-3.4
							s2.1-1.4,3.5-1.4c0.8,0,1.6,0.2,2.3,0.5C149.3,171.1,149.9,171.6,150.3,172.2z"/>
						<path class="st3" d="M155.2,172.7c1,0,1.9,0.4,2.6,1.1c0.6,0.7,0.9,1.5,0.9,2.4s-0.3,1.8-1,2.5s-1.5,1.1-2.5,1.1
							s-1.9-0.4-2.5-1.1c-0.7-0.7-1-1.5-1-2.5c0-0.9,0.3-1.7,0.9-2.4C153.3,173.1,154.1,172.7,155.2,172.7z M155.2,173.5
							c-0.7,0-1.3,0.3-1.9,0.8c-0.5,0.5-0.8,1.2-0.8,1.9c0,0.5,0.1,0.9,0.4,1.4c0.2,0.4,0.6,0.7,1,1c0.4,0.2,0.8,0.3,1.3,0.3
							s0.9-0.1,1.3-0.3c0.4-0.2,0.7-0.6,1-1c0.2-0.4,0.4-0.9,0.4-1.4c0-0.8-0.3-1.4-0.8-1.9C156.5,173.8,155.9,173.5,155.2,173.5z"
							/>
						<path class="st3" d="M160.3,172.8h0.9v1.2c0.3-0.4,0.6-0.7,0.9-0.9c0.4-0.3,0.9-0.4,1.4-0.4c0.3,0,0.6,0.1,0.9,0.2
							c0.3,0.1,0.5,0.3,0.7,0.5s0.3,0.5,0.5,0.9c0.3-0.5,0.6-0.9,1.1-1.2c0.4-0.3,0.9-0.4,1.4-0.4s0.9,0.1,1.2,0.4
							c0.4,0.2,0.6,0.6,0.8,1s0.3,1.1,0.3,1.9v3.7h-0.9V176c0-0.7-0.1-1.2-0.2-1.5c-0.1-0.3-0.3-0.5-0.5-0.7s-0.5-0.2-0.9-0.2
							s-0.8,0.1-1.1,0.4c-0.3,0.2-0.6,0.6-0.8,1s-0.2,1.1-0.2,2.1v2.6h-0.9v-3.4c0-0.8-0.1-1.4-0.2-1.7c-0.1-0.3-0.3-0.5-0.5-0.7
							c-0.3-0.2-0.6-0.3-0.9-0.3c-0.4,0-0.8,0.1-1.1,0.4s-0.6,0.6-0.8,1s-0.3,1-0.3,1.9v2.8h-0.9v-6.9L160.3,172.8L160.3,172.8z"/>
						<path class="st3" d="M172.2,172.8h0.9v1.2c0.3-0.5,0.7-0.8,1.2-1.1c0.4-0.2,0.9-0.4,1.5-0.4c1,0,1.8,0.3,2.5,1s1,1.5,1,2.5
							s-0.3,1.8-1,2.5s-1.5,1-2.4,1c-0.5,0-1-0.1-1.5-0.3c-0.4-0.2-0.9-0.6-1.2-1v3.6h-0.9v-9H172.2z M175.6,173.5
							c-0.7,0-1.4,0.3-1.9,0.8s-0.8,1.2-0.8,2c0,0.5,0.1,1,0.3,1.4s0.6,0.7,1,1c0.4,0.2,0.9,0.4,1.3,0.4c0.5,0,0.9-0.1,1.3-0.4
							c0.4-0.2,0.7-0.6,1-1c0.2-0.4,0.4-0.9,0.4-1.4s-0.1-0.9-0.4-1.4c-0.2-0.4-0.6-0.8-1-1C176.6,173.6,176.1,173.5,175.6,173.5z"
							/>
						<path class="st3" d="M180.7,172.8h0.9v3.1c0,0.8,0,1.3,0.1,1.6c0.1,0.4,0.4,0.7,0.7,1s0.8,0.4,1.2,0.4c0.5,0,0.9-0.1,1.2-0.3
							s0.6-0.5,0.7-0.9c0.1-0.3,0.1-0.8,0.1-1.7v-3.1h0.9v3.3c0,0.9-0.1,1.6-0.3,2.1s-0.5,0.8-1,1.1c-0.4,0.3-1,0.4-1.6,0.4
							c-0.7,0-1.2-0.1-1.6-0.4c-0.4-0.3-0.8-0.6-1-1.1s-0.3-1.2-0.3-2.1L180.7,172.8L180.7,172.8z"/>
						<path class="st3" d="M189.2,170.4h0.9v2.5h1.4v0.7h-1.4v6h-0.9v-6H188v-0.7h1.2V170.4z"/>
						<path class="st3" d="M198.4,177.3l0.7,0.4c-0.2,0.5-0.5,0.8-0.8,1.1s-0.7,0.5-1.1,0.7c-0.4,0.2-0.8,0.2-1.3,0.2
							c-1.1,0-2-0.4-2.6-1.1c-0.6-0.7-0.9-1.5-0.9-2.4s0.3-1.6,0.8-2.3c0.7-0.8,1.6-1.3,2.7-1.3c1.1,0,2.1,0.4,2.7,1.3
							c0.5,0.6,0.7,1.4,0.7,2.3h-6.1c0,0.8,0.3,1.4,0.7,1.9c0.5,0.5,1.1,0.7,1.8,0.7c0.3,0,0.7-0.1,1-0.2c0.3-0.1,0.6-0.3,0.8-0.5
							C197.9,178.1,198.2,177.8,198.4,177.3z M198.4,175.5c-0.1-0.5-0.3-0.8-0.5-1.1s-0.5-0.5-0.9-0.7s-0.7-0.3-1.1-0.3
							c-0.7,0-1.2,0.2-1.7,0.6c-0.3,0.3-0.6,0.8-0.8,1.4h5V175.5z"/>
						<path class="st3" d="M200.7,172.8h0.9v1c0.3-0.4,0.5-0.7,0.8-0.9s0.6-0.3,0.9-0.3c0.2,0,0.5,0.1,0.8,0.2l-0.5,0.7
							c-0.2-0.1-0.3-0.1-0.5-0.1c-0.3,0-0.6,0.1-0.8,0.4c-0.3,0.2-0.5,0.6-0.6,1.1c-0.1,0.4-0.2,1.2-0.2,2.3v2.3h-0.9v-6.7H200.7z"
							/>
						<path class="st3" d="M208.5,170.5h5.2v0.9h-4.3v2.9h4.3v0.9h-4.3v3.6h4.3v0.9h-5.2V170.5z"/>
						<path class="st3" d="M215.1,172.8h0.9v1.2c0.3-0.5,0.7-0.8,1.1-1c0.4-0.2,0.9-0.3,1.4-0.3s0.9,0.1,1.3,0.4
							c0.4,0.3,0.7,0.6,0.9,1s0.3,1.1,0.3,2v3.5h-0.9v-3.2c0-0.8,0-1.3-0.1-1.6c-0.1-0.4-0.3-0.8-0.6-1s-0.7-0.3-1.1-0.3
							c-0.5,0-1,0.2-1.4,0.5s-0.7,0.8-0.8,1.3c-0.1,0.3-0.1,0.9-0.1,1.8v2.5h-0.9L215.1,172.8L215.1,172.8z"/>
						<path class="st3" d="M228.6,172.8h0.9v5.4c0,0.9-0.1,1.6-0.2,2.1c-0.2,0.6-0.6,1.1-1.2,1.4c-0.6,0.3-1.2,0.5-2,0.5
							c-0.6,0-1.1-0.1-1.6-0.2c-0.5-0.2-0.8-0.4-1.1-0.7s-0.6-0.7-0.8-1.2h0.9c0.3,0.4,0.6,0.8,1,1s0.9,0.3,1.5,0.3s1.1-0.1,1.5-0.3
							s0.7-0.5,0.9-0.8s0.3-0.9,0.3-1.6v-0.3c-0.3,0.4-0.7,0.7-1.2,0.9s-1,0.3-1.5,0.3c-0.6,0-1.2-0.2-1.7-0.5s-1-0.7-1.3-1.2
							s-0.4-1.1-0.4-1.7c0-0.6,0.2-1.2,0.5-1.7s0.7-1,1.3-1.3c0.5-0.3,1.1-0.5,1.7-0.5c0.5,0,1,0.1,1.4,0.3s0.9,0.6,1.3,1v-1.2
							H228.6z M226.1,173.5c-0.5,0-0.9,0.1-1.4,0.4c-0.4,0.2-0.8,0.6-1,1s-0.4,0.9-0.4,1.4c0,0.7,0.2,1.3,0.7,1.8s1.1,0.7,1.9,0.7
							c0.8,0,1.4-0.2,1.9-0.7s0.7-1.1,0.7-1.9c0-0.5-0.1-1-0.3-1.4s-0.5-0.7-0.9-0.9C227,173.6,226.6,173.5,226.1,173.5z"/>
						<path class="st3" d="M231.7,170.1c0.2,0,0.4,0.1,0.5,0.2c0.1,0.1,0.2,0.3,0.2,0.5s-0.1,0.4-0.2,0.5c-0.1,0.1-0.3,0.2-0.5,0.2
							s-0.4-0.1-0.5-0.2c-0.1-0.1-0.2-0.3-0.2-0.5s0.1-0.4,0.2-0.5C231.3,170.1,231.5,170.1,231.7,170.1z M231.2,172.8h0.9v6.7h-0.9
							V172.8z"/>
						<path class="st3" d="M233.9,172.8h0.9v1.2c0.3-0.5,0.7-0.8,1.1-1c0.4-0.2,0.9-0.3,1.4-0.3s0.9,0.1,1.3,0.4
							c0.4,0.3,0.7,0.6,0.9,1s0.3,1.1,0.3,2v3.5h-0.9v-3.2c0-0.8,0-1.3-0.1-1.6c-0.1-0.4-0.3-0.8-0.6-1s-0.7-0.3-1.1-0.3
							c-0.5,0-1,0.2-1.4,0.5s-0.7,0.8-0.8,1.3c-0.1,0.3-0.1,0.9-0.1,1.8v2.5h-0.9L233.9,172.8L233.9,172.8z"/>
						<path class="st3" d="M247.3,177.3l0.7,0.4c-0.2,0.5-0.5,0.8-0.8,1.1s-0.7,0.5-1.1,0.7c-0.4,0.2-0.8,0.2-1.3,0.2
							c-1.1,0-2-0.4-2.6-1.1c-0.6-0.7-0.9-1.5-0.9-2.4s0.3-1.6,0.8-2.3c0.7-0.8,1.6-1.3,2.7-1.3c1.1,0,2.1,0.4,2.7,1.3
							c0.5,0.6,0.7,1.4,0.7,2.3h-6.1c0,0.8,0.3,1.4,0.7,1.9c0.5,0.5,1.1,0.7,1.8,0.7c0.3,0,0.7-0.1,1-0.2c0.3-0.1,0.6-0.3,0.8-0.5
							C246.8,178.1,247,177.8,247.3,177.3z M247.3,175.5c-0.1-0.5-0.3-0.8-0.5-1.1s-0.5-0.5-0.9-0.7s-0.7-0.3-1.1-0.3
							c-0.7,0-1.2,0.2-1.7,0.6c-0.3,0.3-0.6,0.8-0.8,1.4h5V175.5z"/>
						<path class="st3" d="M255.5,177.3l0.7,0.4c-0.2,0.5-0.5,0.8-0.8,1.1s-0.7,0.5-1.1,0.7c-0.4,0.2-0.8,0.2-1.3,0.2
							c-1.1,0-2-0.4-2.6-1.1c-0.6-0.7-0.9-1.5-0.9-2.4s0.3-1.6,0.8-2.3c0.7-0.8,1.6-1.3,2.7-1.3c1.1,0,2.1,0.4,2.7,1.3
							c0.5,0.6,0.7,1.4,0.7,2.3h-6.1c0,0.8,0.3,1.4,0.7,1.9c0.5,0.5,1.1,0.7,1.8,0.7c0.3,0,0.7-0.1,1-0.2c0.3-0.1,0.6-0.3,0.8-0.5
							C255,178.1,255.2,177.8,255.5,177.3z M255.5,175.5c-0.1-0.5-0.3-0.8-0.5-1.1s-0.5-0.5-0.9-0.7s-0.7-0.3-1.1-0.3
							c-0.7,0-1.2,0.2-1.7,0.6c-0.3,0.3-0.6,0.8-0.8,1.4h5V175.5z"/>
						<path class="st3" d="M257.7,172.8h0.9v1c0.3-0.4,0.5-0.7,0.8-0.9s0.6-0.3,0.9-0.3c0.2,0,0.5,0.1,0.8,0.2l-0.5,0.7
							c-0.2-0.1-0.3-0.1-0.5-0.1c-0.3,0-0.6,0.1-0.8,0.4c-0.3,0.2-0.5,0.6-0.6,1.1c-0.1,0.4-0.2,1.2-0.2,2.3v2.3h-0.9v-6.7H257.7z"
							/>
					</g>
				</g>
			</g>
		</g>
		<g>
			<path class="st2" d="M61.1,187.4c0.4,0,0.7-0.2,0.8-0.5l4.8-8.8c0.1,0,0.2,0,0.3,0c1.4,0,2.6-1.2,2.6-2.6c0-0.6-0.2-1.2-0.6-1.7
				s-1-0.8-1.7-0.9c-0.1,0-0.2,0-0.3,0c-1.4,0-2.6,1.2-2.6,2.6c0,0.6,0.2,1.2,0.6,1.7l-4.7,8.8l0,0c-0.1,0.1-0.1,0.3-0.1,0.4
				C60.1,187,60.6,187.4,61.1,187.4z M66.1,175.1L66.1,175.1c0.2-0.3,0.5-0.5,0.8-0.5c0.5,0,0.9,0.4,0.9,0.9c0,0.2,0,0.3-0.1,0.4
				l0,0c-0.2,0.3-0.5,0.5-0.8,0.5c-0.5,0-0.9-0.4-0.9-0.9C66,175.4,66.1,175.3,66.1,175.1z"/>
			<path class="st2" d="M92,170.2L92,170.2L86,159c0.1-0.3,0.1-0.5,0.1-0.8c0-1.4-1.2-2.6-2.6-2.6s-2.6,1.2-2.6,2.6
				c0,0.3,0.1,0.6,0.2,0.9l-6.3,11.6l-1,1.9l-8.7,16.1c-0.1,0-0.3,0-0.4,0c-1.1,0-2.1,0.7-2.4,1.7h-8c-0.2,0-0.4-0.2-0.4-0.4
				c0-0.1,0-0.1,0-0.2l1.1-2l0,0l9.1-16.9c0.1,0,0.2,0,0.3,0c1.4,0,2.6-1.2,2.6-2.6c0-0.6-0.2-1.2-0.6-1.7s-1-0.8-1.7-0.9
				c-0.1,0-0.2,0-0.3,0c-1.4,0-2.6,1.2-2.6,2.6c0,0.6,0.2,1.2,0.6,1.7l-10.1,18.7l0,0l0,0l-0.2,0.3l0,0c-0.1,0.3-0.2,0.6-0.2,0.9
				c0,1.3,1,2.3,2.3,2.3h8.1c0.4,0.9,1.3,1.6,2.4,1.6c1.4,0,2.6-1.2,2.6-2.6c0-0.6-0.2-1.2-0.6-1.6l9.2-17.1h14.6
				c0.9,0,1.7-0.7,1.7-1.7C92.2,170.7,92.2,170.4,92,170.2z M63.6,167.9l0.1-0.1l0,0c0.2-0.3,0.5-0.4,0.8-0.4c0.5,0,0.9,0.4,0.9,0.9
				c0,0.2,0,0.3-0.1,0.4c0,0,0,0.1-0.1,0.1c-0.2,0.3-0.5,0.4-0.8,0.4c-0.5,0-0.9-0.4-0.9-0.9C63.6,168.2,63.6,168.1,63.6,167.9z
				 M64.7,192.2c-0.5,0-0.9-0.4-0.9-0.9s0.4-0.9,0.9-0.9s0.9,0.4,0.9,0.9C65.7,191.8,65.3,192.2,64.7,192.2z M83.6,157.2
				c0.5,0,0.9,0.4,0.9,0.9c0,0.4-0.3,0.7-0.6,0.9c-0.1,0-0.2,0.1-0.3,0.1c-0.1,0-0.2,0-0.3,0c-0.4-0.1-0.7-0.5-0.7-0.9
				C82.6,157.7,83,157.2,83.6,157.2z M89.9,170.7H77l5.2-9.7l0,0l0.3-0.5c0.3,0.2,0.7,0.2,1.1,0.2s0.8-0.1,1.1-0.3L85,161l4.6,8.6
				l0.5,0.9c0,0,0,0,0,0.1C90.1,170.6,90,170.7,89.9,170.7z"/>
			<path class="st2" d="M115.1,188.7c-0.1,0-0.2,0-0.3,0l-23.8-44l-1.1-2l0,0l-2.1-3.9l-1.1-2l0,0l-0.8-1.5c0.1-0.3,0.2-0.6,0.2-1
				c0-1.4-1.2-2.6-2.6-2.6s-2.6,1.2-2.6,2.6c0,0.4,0.1,0.7,0.2,1l-12.3,22.8l0,0l-0.1,0.1c-0.1,0.1-0.1,0.3-0.1,0.4
				c0,0.5,0.4,0.9,0.9,0.9c0.4,0,0.7-0.2,0.8-0.5L82,137.3l0.4-0.7c0.3,0.1,0.6,0.2,0.9,0.2c0.4,0,0.7-0.1,1-0.2l0.4,0.7l0.7,1.4
				l1.1,2l2.1,3.9l1.1,2l23.2,42.9c-0.2,0.2-0.3,0.5-0.4,0.7h-3.4l-3.3-6.2c0.4-0.4,0.6-1,0.6-1.7c0-1.4-1.2-2.6-2.6-2.6
				c-0.1,0-0.2,0-0.3,0l-15.9-29.4l-1.1-2l-1.2-2.2c-0.4-0.7-1.1-1.2-2-1.2c-0.8,0-1.6,0.5-2,1.2c0,0,0,0,0,0.1l-1.2,2.2l-1.1,2
				l-2.3,4.2c-0.1,0-0.2,0-0.3,0c-1.4,0-2.6,1.2-2.6,2.6c0,0.6,0.2,1.2,0.6,1.7s1,0.8,1.7,0.9c0.1,0,0.2,0,0.3,0
				c1.4,0,2.6-1.2,2.6-2.6c0-0.6-0.2-1.2-0.6-1.7l1.7-3.2l1.1-2l0.7-1.4l1-1.9l0,0c0.1-0.1,0.2-0.2,0.3-0.2c0.1,0,0.3,0.1,0.3,0.2
				l0,0l1,1.9l0.7,1.4l1.1,2l15.3,28.3c-0.4,0.4-0.6,1-0.6,1.7c0,1.4,1.2,2.6,2.6,2.6c0.1,0,0.2,0,0.3,0l2.8,5.3h-3.9l0,0
				c-0.2,0-0.3-0.1-0.4-0.3l0,0l-1.1-2l-4-7.5c0.3-0.4,0.5-0.9,0.5-1.5c0-1.4-1.2-2.6-2.6-2.6c-1,0-1.9,0.6-2.4,1.5h-9.7
				c-0.5,0-0.9,0.4-0.9,0.9s0.4,0.9,0.9,0.9h9.6c0.3,1,1.3,1.8,2.4,1.8c0.2,0,0.3,0,0.5-0.1l4.7,8.7l0.3,0.6l0,0l0,0l0,0
				c0.4,0.7,1.2,1.2,2.1,1.2h9.4c0.4,1,1.3,1.6,2.4,1.6c1.4,0,2.6-1.2,2.6-2.6C117.6,189.9,116.5,188.7,115.1,188.7z M83.6,135.3
				c-0.5,0-0.9-0.4-0.9-0.9c0-0.4,0.3-0.8,0.7-0.9c0.1,0,0.2,0,0.2,0c0.1,0,0.1,0,0.2,0c0.4,0.1,0.8,0.5,0.8,0.9
				C84.5,134.9,84.1,135.3,83.6,135.3z M77.6,157.9L77.6,157.9c-0.2,0.3-0.5,0.5-0.8,0.5c-0.5,0-0.9-0.4-0.9-0.9
				c0-0.2,0-0.3,0.1-0.4V157l0,0c0.2-0.3,0.5-0.4,0.8-0.4c0.5,0,0.9,0.4,0.9,0.9C77.7,157.6,77.6,157.7,77.6,157.9z M104,183.5
				c-0.3,0-0.6-0.2-0.8-0.4c0,0,0-0.1-0.1-0.1c-0.1-0.1-0.1-0.3-0.1-0.4c0-0.5,0.4-0.9,0.9-0.9c0.4,0,0.7,0.2,0.8,0.5
				c0.1,0.1,0.1,0.3,0.1,0.5C104.9,183.1,104.5,183.5,104,183.5z M95.6,180.1c-0.1,0-0.3,0-0.4-0.1c0,0,0,0-0.1,0
				c-0.3-0.2-0.5-0.5-0.5-0.8c0-0.5,0.4-0.9,0.9-0.9s0.9,0.4,0.9,0.9C96.5,179.6,96.1,180.1,95.6,180.1z M115.1,192.3
				c-0.5,0-0.9-0.4-0.9-0.9s0.4-0.9,0.9-0.9c0.3,0,0.6,0.2,0.8,0.4c0,0,0,0.1,0.1,0.1c0.1,0.1,0.1,0.3,0.1,0.4
				C116,191.8,115.6,192.3,115.1,192.3z"/>
			<path class="st3" d="M95.1,179.9C95.1,180,95.2,180,95.1,179.9L95.1,179.9L95.1,179.9z M66.9,174.6c-0.4,0-0.7,0.2-0.8,0.5l0,0
				c-0.1,0.1-0.1,0.3-0.1,0.4c0,0.5,0.4,0.9,0.9,0.9c0.4,0,0.7-0.2,0.8-0.5l0,0c0.1-0.1,0.1-0.3,0.1-0.4
				C67.9,175.1,67.5,174.6,66.9,174.6z M83.3,159.1c0.1,0,0.2,0,0.3,0c0.1,0,0.2,0,0.3-0.1c0.4-0.1,0.6-0.5,0.6-0.9
				c0-0.5-0.4-0.9-0.9-0.9s-0.9,0.4-0.9,0.9C82.6,158.6,82.9,159,83.3,159.1z M89.6,169.6L85,161l-0.3-0.5c-0.3,0.2-0.7,0.3-1.1,0.3
				s-0.7-0.1-1.1-0.2l-0.3,0.5l0,0l-5.2,9.7h12.9c0.1,0,0.1-0.1,0.1-0.1v-0.1L89.6,169.6z M64.5,169.3c0.3,0,0.6-0.2,0.8-0.4
				c0,0,0-0.1,0.1-0.1c0.1-0.1,0.1-0.3,0.1-0.4c0-0.5-0.4-0.9-0.9-0.9c-0.3,0-0.6,0.2-0.8,0.4l0,0l-0.1,0.1
				c-0.1,0.1-0.1,0.3-0.1,0.4C63.6,168.9,64,169.3,64.5,169.3z M64.7,190.3c-0.5,0-0.9,0.4-0.9,0.9s0.4,0.9,0.9,0.9s0.9-0.4,0.9-0.9
				C65.7,190.7,65.3,190.3,64.7,190.3z M83.6,135.3c0.5,0,0.9-0.4,0.9-0.9s-0.3-0.8-0.8-0.9l0,0c-0.1,0-0.1,0-0.2,0s-0.2,0-0.2,0
				l0,0c-0.4,0.1-0.7,0.5-0.7,0.9C82.6,134.9,83,135.3,83.6,135.3z M77.6,157.9L77.6,157.9c0.1-0.2,0.1-0.3,0.1-0.5
				c0-0.5-0.4-0.9-0.9-0.9c-0.3,0-0.6,0.2-0.8,0.4l0,0v0.1c-0.1,0.1-0.1,0.3-0.1,0.4c0,0.5,0.4,0.9,0.9,0.9
				C77.1,158.4,77.4,158.2,77.6,157.9z M104,181.6c-0.5,0-0.9,0.4-0.9,0.9c0,0.2,0,0.3,0.1,0.4c0,0,0,0.1,0.1,0.1
				c0.2,0.3,0.5,0.4,0.8,0.4c0.5,0,0.9-0.4,0.9-0.9c0-0.2,0-0.3-0.1-0.5C104.7,181.8,104.4,181.6,104,181.6z M95.6,178.2
				c-0.5,0-0.9,0.4-0.9,0.9c0,0.4,0.2,0.7,0.5,0.8l0,0l0,0c0.1,0.1,0.3,0.1,0.4,0.1c0.5,0,0.9-0.4,0.9-0.9S96.1,178.2,95.6,178.2z
				 M115.9,190.8c-0.2-0.3-0.5-0.4-0.8-0.4c-0.5,0-0.9,0.4-0.9,0.9s0.4,0.9,0.9,0.9s0.9-0.4,0.9-0.9C116,191.2,116,191,115.9,190.8
				C115.9,190.9,115.9,190.8,115.9,190.8z"/>
		</g>
	</g>
</g>
<g id="un_color_h" class="st0">
	<g class="st1">
		<g>
			<g>
				<g>
					<path class="st2" d="M122.6,145.4h3.1l6.1,15.8h-3.1l-1.2-3.3H121l-1.3,3.3h-3.1L122.6,145.4z M124.2,149.6l-2.1,5.4h4.2
						L124.2,149.6z"/>
					<path class="st2" d="M141,151.2l-1.8,1.8c-0.7-0.7-1.4-1.1-2-1.1c-0.3,0-0.6,0.1-0.8,0.2c-0.2,0.1-0.3,0.3-0.3,0.5
						s0.1,0.3,0.2,0.4c0.1,0.1,0.4,0.3,0.9,0.5l1.1,0.5c1.1,0.6,1.9,1.1,2.3,1.7c0.4,0.6,0.6,1.3,0.6,2c0,1-0.4,1.9-1.1,2.6
						c-0.8,0.7-1.8,1-3.1,1c-1.7,0-3.1-0.7-4.1-2l1.8-2c0.3,0.4,0.7,0.7,1.2,1c0.5,0.2,0.9,0.4,1.2,0.4c0.4,0,0.7-0.1,0.9-0.3
						s0.4-0.4,0.4-0.6c0-0.5-0.4-0.9-1.3-1.3l-1-0.5c-1.9-1-2.8-2.1-2.8-3.6c0-0.9,0.4-1.7,1.1-2.4c0.7-0.7,1.6-1,2.7-1
						c0.8,0,1.5,0.2,2.1,0.5C140,150.1,140.6,150.6,141,151.2z"/>
					<path class="st2" d="M151.9,145h2.9v16.2h-2.9V160c-0.6,0.5-1.1,0.9-1.7,1.2c-0.6,0.2-1.2,0.4-1.9,0.4c-1.5,0-2.8-0.6-3.9-1.8
						c-1.1-1.2-1.7-2.6-1.7-4.4c0-1.8,0.5-3.3,1.6-4.4c1.1-1.2,2.4-1.7,3.9-1.7c0.7,0,1.4,0.1,2,0.4c0.6,0.3,1.2,0.7,1.7,1.2
						L151.9,145L151.9,145z M148.8,152c-0.9,0-1.7,0.3-2.3,1c-0.6,0.6-0.9,1.5-0.9,2.5s0.3,1.8,0.9,2.5c0.6,0.7,1.4,1,2.3,1
						c0.9,0,1.7-0.3,2.3-1c0.6-0.6,0.9-1.5,0.9-2.5s-0.3-1.8-0.9-2.5C150.5,152.3,149.7,152,148.8,152z"/>
					<path class="st2" d="M157.3,149.5h2.5v1.5c0.3-0.6,0.6-1,1.1-1.3s0.9-0.5,1.5-0.5c0.4,0,0.8,0.1,1.2,0.3l-0.9,2.5
						c-0.3-0.2-0.6-0.3-0.9-0.3c-0.5,0-0.8,0.3-1.1,0.8c-0.3,0.6-0.5,1.7-0.5,3.3v0.6v4.7h-2.9L157.3,149.5L157.3,149.5z"/>
					<path class="st2" d="M165,149.5h3v5.6c0,1.1,0.1,1.9,0.2,2.3c0.2,0.4,0.4,0.8,0.7,1s0.7,0.4,1.2,0.4s0.9-0.1,1.2-0.3
						s0.6-0.6,0.8-1c0.1-0.3,0.2-1.1,0.2-2.2v-5.7h2.9v5c0,2-0.2,3.4-0.5,4.2c-0.4,0.9-1,1.6-1.7,2.1c-0.8,0.5-1.7,0.7-2.9,0.7
						c-1.3,0-2.3-0.3-3.1-0.9c-0.8-0.6-1.4-1.4-1.7-2.4c-0.2-0.7-0.3-2-0.3-3.9L165,149.5L165,149.5z M170.6,143.2h3.5l-3.9,4.2H168
						L170.6,143.2z"/>
					<path class="st2" d="M180.9,145v5.8c0.5-0.5,1.1-0.9,1.7-1.2s1.3-0.4,2-0.4c1.5,0,2.8,0.6,3.9,1.7c1.1,1.2,1.6,2.6,1.6,4.4
						c0,1.7-0.6,3.2-1.7,4.4c-1.1,1.2-2.4,1.8-3.9,1.8c-0.7,0-1.3-0.1-1.9-0.4c-0.6-0.2-1.2-0.6-1.7-1.2v1.2H178V145H180.9z
						 M184,152c-0.9,0-1.7,0.3-2.3,0.9c-0.6,0.6-0.9,1.5-0.9,2.5s0.3,1.9,0.9,2.5c0.6,0.6,1.4,1,2.3,1c0.9,0,1.7-0.3,2.3-1
						s0.9-1.5,0.9-2.5s-0.3-1.8-0.9-2.5C185.7,152.3,185,152,184,152z"/>
					<path class="st2" d="M201,149.5h2.9v11.7H201V160c-0.6,0.5-1.1,0.9-1.7,1.2c-0.6,0.2-1.2,0.4-1.9,0.4c-1.5,0-2.8-0.6-3.9-1.8
						c-1.1-1.2-1.7-2.6-1.7-4.4c0-1.8,0.5-3.3,1.6-4.4c1.1-1.2,2.4-1.7,3.9-1.7c0.7,0,1.4,0.1,2,0.4c0.6,0.3,1.2,0.7,1.7,1.2
						L201,149.5L201,149.5z M197.9,152c-0.9,0-1.7,0.3-2.3,1c-0.6,0.6-0.9,1.5-0.9,2.5s0.3,1.8,0.9,2.5c0.6,0.7,1.4,1,2.3,1
						c0.9,0,1.7-0.3,2.3-1c0.6-0.6,0.9-1.5,0.9-2.5s-0.3-1.8-0.9-2.5S198.8,152,197.9,152z"/>
					<path class="st2" d="M206.6,145h2.9v16.2h-2.9V145z"/>
					<path class="st2" d="M227,147.6l-2.2,2c-0.8-1.1-1.6-1.6-2.4-1.6c-0.4,0-0.7,0.1-1,0.3s-0.4,0.5-0.4,0.7c0,0.3,0.1,0.5,0.3,0.8
						s1,1,2.2,2s1.8,1.6,2.1,1.8c0.6,0.6,1,1.2,1.3,1.8s0.4,1.2,0.4,1.8c0,1.3-0.4,2.4-1.3,3.2c-0.9,0.8-2.1,1.3-3.5,1.3
						c-1.1,0-2.1-0.3-2.9-0.8c-0.8-0.6-1.6-1.4-2.2-2.6l2.5-1.5c0.8,1.4,1.6,2.1,2.6,2.1c0.5,0,1-0.2,1.3-0.5c0.4-0.3,0.5-0.6,0.5-1
						s-0.1-0.7-0.4-1.1c-0.3-0.4-0.9-0.9-1.8-1.6c-1.7-1.4-2.8-2.5-3.3-3.3s-0.8-1.5-0.8-2.3c0-1.1,0.4-2,1.3-2.8
						c0.8-0.8,1.9-1.2,3.1-1.2c0.8,0,1.5,0.2,2.3,0.5C225.4,145.9,226.2,146.6,227,147.6z"/>
					<path class="st2" d="M229.4,149.5h3v5.6c0,1.1,0.1,1.9,0.2,2.3c0.2,0.4,0.4,0.8,0.7,1s0.7,0.4,1.2,0.4s0.9-0.1,1.2-0.3
						s0.6-0.6,0.8-1c0.1-0.3,0.2-1.1,0.2-2.2v-5.7h2.9v5c0,2-0.2,3.4-0.5,4.2c-0.4,0.9-1,1.6-1.7,2.1c-0.8,0.5-1.7,0.7-2.9,0.7
						c-1.3,0-2.3-0.3-3.1-0.9c-0.8-0.6-1.4-1.4-1.7-2.4c-0.2-0.7-0.3-2-0.3-3.9L229.4,149.5L229.4,149.5z"/>
					<path class="st2" d="M251,149.5h2.9v11.7H251V160c-0.6,0.5-1.1,0.9-1.7,1.2c-0.6,0.2-1.2,0.4-1.9,0.4c-1.5,0-2.8-0.6-3.9-1.8
						c-1.1-1.2-1.7-2.6-1.7-4.4c0-1.8,0.5-3.3,1.6-4.4c1.1-1.2,2.4-1.7,3.9-1.7c0.7,0,1.4,0.1,2,0.4c0.6,0.3,1.2,0.7,1.7,1.2
						L251,149.5L251,149.5z M247.9,152c-0.9,0-1.7,0.3-2.3,1c-0.6,0.6-0.9,1.5-0.9,2.5s0.3,1.8,0.9,2.5c0.6,0.7,1.4,1,2.3,1
						c0.9,0,1.7-0.3,2.3-1c0.6-0.6,0.9-1.5,0.9-2.5s-0.3-1.8-0.9-2.5S248.8,152,247.9,152z M248.7,143.2h3.5l-3.9,4.2h-2.1
						L248.7,143.2z"/>
					<path class="st2" d="M256.4,149.5h2.5v1.5c0.3-0.6,0.6-1,1.1-1.3s0.9-0.5,1.5-0.5c0.4,0,0.8,0.1,1.2,0.3l-0.9,2.5
						c-0.3-0.2-0.6-0.3-0.9-0.3c-0.5,0-0.8,0.3-1.1,0.8c-0.3,0.6-0.5,1.7-0.5,3.3v0.6v4.7h-2.9L256.4,149.5L256.4,149.5z"/>
					<path class="st2" d="M275.3,156.3h-9.4c0.1,0.8,0.5,1.5,1.1,2s1.3,0.7,2.3,0.7c1.1,0,2-0.4,2.8-1.2l2.5,1.2
						c-0.6,0.9-1.4,1.5-2.2,1.9s-1.9,0.6-3.1,0.6c-1.8,0-3.3-0.6-4.5-1.7c-1.2-1.2-1.7-2.6-1.7-4.4c0-1.8,0.6-3.3,1.7-4.5
						c1.2-1.2,2.6-1.8,4.3-1.8c1.8,0,3.3,0.6,4.5,1.8s1.7,2.7,1.7,4.7L275.3,156.3z M272.3,153.9c-0.2-0.7-0.6-1.2-1.1-1.6
						c-0.6-0.4-1.2-0.6-2-0.6s-1.5,0.2-2.2,0.7c-0.4,0.3-0.7,0.8-1.1,1.5L272.3,153.9L272.3,153.9z"/>
					<path class="st2" d="M276.6,149.5h9l-5.3,9.2h5v2.5h-9.5l5.3-9.2h-4.5V149.5z"/>
				</g>
				<g>
					<path class="st2" d="M135.6,169.3l-4.6,12.9h-1.2l4.6-12.9H135.6z"/>
					<path class="st2" d="M140.9,169.3l-4.6,12.9h-1.2l4.6-12.9H140.9z"/>
					<path class="st2" d="M266.9,169.3l-4.6,12.9h-1.2l4.6-12.9H266.9z"/>
					<path class="st2" d="M272.2,169.3l-4.6,12.9h-1.2l4.6-12.9H272.2z"/>
					<g>
						<path class="st2" d="M150.3,172.2l-0.7,0.6c-0.4-0.5-0.9-0.9-1.4-1.2c-0.6-0.3-1.2-0.4-1.8-0.4c-0.7,0-1.4,0.2-2,0.5
							s-1.1,0.8-1.4,1.4c-0.3,0.6-0.5,1.2-0.5,2c0,1.1,0.4,2,1.1,2.8s1.7,1.1,2.9,1.1c1.3,0,2.3-0.5,3.2-1.5l0.7,0.5
							c-0.5,0.6-1,1-1.7,1.3s-1.4,0.5-2.3,0.5c-1.6,0-2.8-0.5-3.8-1.6c-0.8-0.9-1.2-2-1.2-3.2c0-1.3,0.5-2.5,1.4-3.4
							s2.1-1.4,3.5-1.4c0.8,0,1.6,0.2,2.3,0.5C149.3,171.2,149.9,171.6,150.3,172.2z"/>
						<path class="st2" d="M155.2,172.7c1,0,1.9,0.4,2.6,1.1c0.6,0.7,0.9,1.5,0.9,2.4s-0.3,1.8-1,2.5s-1.5,1.1-2.5,1.1
							s-1.9-0.4-2.5-1.1s-1-1.5-1-2.5c0-0.9,0.3-1.7,0.9-2.4C153.3,173.1,154.1,172.7,155.2,172.7z M155.2,173.6
							c-0.7,0-1.3,0.3-1.9,0.8c-0.5,0.5-0.8,1.2-0.8,1.9c0,0.5,0.1,0.9,0.4,1.4c0.2,0.4,0.6,0.7,1,1c0.4,0.2,0.8,0.3,1.3,0.3
							s0.9-0.1,1.3-0.3c0.4-0.2,0.7-0.6,1-1c0.2-0.4,0.4-0.9,0.4-1.4c0-0.8-0.3-1.4-0.8-1.9C156.5,173.9,155.9,173.6,155.2,173.6z"
							/>
						<path class="st2" d="M160.3,172.9h0.9v1.2c0.3-0.4,0.6-0.7,0.9-0.9c0.4-0.3,0.9-0.4,1.4-0.4c0.3,0,0.6,0.1,0.9,0.2
							c0.3,0.1,0.5,0.3,0.7,0.5s0.3,0.5,0.5,0.9c0.3-0.5,0.6-0.9,1.1-1.2c0.4-0.3,0.9-0.4,1.4-0.4s0.9,0.1,1.2,0.4
							c0.4,0.2,0.6,0.6,0.8,1s0.3,1.1,0.3,1.9v3.7h-0.9V176c0-0.7-0.1-1.2-0.2-1.5c-0.1-0.3-0.3-0.5-0.5-0.7s-0.5-0.2-0.9-0.2
							s-0.8,0.1-1.1,0.4c-0.3,0.2-0.6,0.6-0.8,1s-0.2,1.1-0.2,2.1v2.6h-0.9v-3.4c0-0.8-0.1-1.4-0.2-1.7c-0.1-0.3-0.3-0.5-0.5-0.7
							c-0.3-0.2-0.6-0.3-0.9-0.3c-0.4,0-0.8,0.1-1.1,0.4c-0.3,0.2-0.6,0.6-0.8,1s-0.3,1-0.3,1.9v2.8h-0.9v-6.8L160.3,172.9
							L160.3,172.9z"/>
						<path class="st2" d="M172.2,172.9h0.9v1.2c0.3-0.5,0.7-0.8,1.2-1.1c0.4-0.2,0.9-0.4,1.5-0.4c1,0,1.8,0.3,2.5,1s1,1.5,1,2.5
							s-0.3,1.8-1,2.5s-1.5,1-2.4,1c-0.5,0-1-0.1-1.5-0.3c-0.4-0.2-0.9-0.6-1.2-1v3.6h-0.9v-9H172.2z M175.6,173.6
							c-0.7,0-1.4,0.3-1.9,0.8s-0.8,1.2-0.8,2c0,0.5,0.1,1,0.3,1.4s0.6,0.7,1,1c0.4,0.2,0.9,0.4,1.3,0.4c0.5,0,0.9-0.1,1.3-0.4
							c0.4-0.2,0.7-0.6,1-1c0.2-0.4,0.4-0.9,0.4-1.4s-0.1-0.9-0.4-1.4c-0.2-0.4-0.6-0.8-1-1C176.5,173.7,176.1,173.6,175.6,173.6z"
							/>
						<path class="st2" d="M180.7,172.9h0.9v3.1c0,0.8,0,1.3,0.1,1.6c0.1,0.4,0.4,0.7,0.7,1s0.8,0.4,1.2,0.4c0.5,0,0.9-0.1,1.2-0.3
							s0.6-0.5,0.7-0.9c0.1-0.3,0.1-0.8,0.1-1.7V173h0.9v3.3c0,0.9-0.1,1.6-0.3,2.1s-0.5,0.8-1,1.1c-0.4,0.3-1,0.4-1.6,0.4
							c-0.7,0-1.2-0.1-1.6-0.4c-0.4-0.3-0.8-0.6-1-1.1s-0.3-1.2-0.3-2.1L180.7,172.9L180.7,172.9z"/>
						<path class="st2" d="M189.2,170.4h0.9v2.5h1.4v0.7h-1.4v6h-0.9v-6H188v-0.7h1.2V170.4z"/>
						<path class="st2" d="M198.4,177.4l0.7,0.4c-0.2,0.5-0.5,0.8-0.8,1.1s-0.7,0.5-1.1,0.7c-0.4,0.2-0.8,0.2-1.3,0.2
							c-1.1,0-2-0.4-2.6-1.1c-0.6-0.7-0.9-1.5-0.9-2.4s0.3-1.6,0.8-2.3c0.7-0.8,1.6-1.3,2.7-1.3c1.1,0,2.1,0.4,2.7,1.3
							c0.5,0.6,0.7,1.4,0.7,2.3h-6.1c0,0.8,0.3,1.4,0.7,1.9c0.5,0.5,1.1,0.7,1.8,0.7c0.3,0,0.7-0.1,1-0.2c0.3-0.1,0.6-0.3,0.8-0.5
							C197.9,178.2,198.2,177.9,198.4,177.4z M198.4,175.6c-0.1-0.5-0.3-0.8-0.5-1.1s-0.5-0.5-0.9-0.7s-0.7-0.3-1.1-0.3
							c-0.7,0-1.2,0.2-1.7,0.6c-0.3,0.3-0.6,0.8-0.8,1.4h5V175.6z"/>
						<path class="st2" d="M200.7,172.9h0.9v1c0.3-0.4,0.5-0.7,0.8-0.9s0.6-0.3,0.9-0.3c0.2,0,0.5,0.1,0.8,0.2l-0.5,0.7
							c-0.2-0.1-0.3-0.1-0.5-0.1c-0.3,0-0.6,0.1-0.8,0.4c-0.3,0.2-0.5,0.6-0.6,1.1c-0.1,0.4-0.2,1.2-0.2,2.3v2.3h-0.9v-6.7H200.7z"
							/>
						<path class="st2" d="M208.5,170.6h5.2v0.9h-4.3v2.9h4.3v0.9h-4.3v3.6h4.3v0.9h-5.2V170.6z"/>
						<path class="st2" d="M215.1,172.9h0.9v1.2c0.3-0.5,0.7-0.8,1.1-1c0.4-0.2,0.9-0.3,1.4-0.3s0.9,0.1,1.3,0.4
							c0.4,0.3,0.7,0.6,0.9,1s0.3,1.1,0.3,2v3.5h-0.9v-3.2c0-0.8,0-1.3-0.1-1.6c-0.1-0.4-0.3-0.8-0.6-1s-0.7-0.3-1.1-0.3
							c-0.5,0-1,0.2-1.4,0.5s-0.7,0.8-0.8,1.3c-0.1,0.3-0.1,0.9-0.1,1.8v2.5h-0.9L215.1,172.9L215.1,172.9z"/>
						<path class="st2" d="M228.6,172.9h0.9v5.4c0,0.9-0.1,1.6-0.2,2.1c-0.2,0.6-0.6,1.1-1.2,1.4c-0.6,0.3-1.2,0.5-2,0.5
							c-0.6,0-1.1-0.1-1.6-0.2c-0.5-0.2-0.8-0.4-1.1-0.7s-0.6-0.7-0.8-1.2h0.9c0.3,0.4,0.6,0.8,1,1s0.9,0.3,1.5,0.3s1.1-0.1,1.5-0.3
							s0.7-0.5,0.9-0.8s0.3-0.9,0.3-1.6v-0.3c-0.3,0.4-0.7,0.7-1.2,0.9s-1,0.3-1.5,0.3c-0.6,0-1.2-0.2-1.7-0.5s-1-0.7-1.3-1.2
							s-0.4-1.1-0.4-1.7c0-0.6,0.2-1.2,0.5-1.7s0.7-1,1.3-1.3c0.5-0.3,1.1-0.5,1.7-0.5c0.5,0,1,0.1,1.4,0.3s0.9,0.6,1.3,1v-1.2
							H228.6z M226.1,173.6c-0.5,0-0.9,0.1-1.4,0.4c-0.4,0.2-0.8,0.6-1,1s-0.4,0.9-0.4,1.4c0,0.7,0.2,1.3,0.7,1.8s1.1,0.7,1.9,0.7
							c0.8,0,1.4-0.2,1.9-0.7s0.7-1.1,0.7-1.9c0-0.5-0.1-1-0.3-1.4s-0.5-0.7-0.9-0.9C227,173.7,226.5,173.6,226.1,173.6z"/>
						<path class="st2" d="M231.6,170.2c0.2,0,0.4,0.1,0.5,0.2c0.1,0.1,0.2,0.3,0.2,0.5s-0.1,0.4-0.2,0.5c-0.1,0.1-0.3,0.2-0.5,0.2
							s-0.4-0.1-0.5-0.2c-0.1-0.1-0.2-0.3-0.2-0.5s0.1-0.4,0.2-0.5C231.3,170.2,231.4,170.2,231.6,170.2z M231.2,172.9h0.9v6.7h-0.9
							V172.9z"/>
						<path class="st2" d="M233.9,172.9h0.9v1.2c0.3-0.5,0.7-0.8,1.1-1c0.4-0.2,0.9-0.3,1.4-0.3s0.9,0.1,1.3,0.4
							c0.4,0.3,0.7,0.6,0.9,1s0.3,1.1,0.3,2v3.5h-0.9v-3.2c0-0.8,0-1.3-0.1-1.6c-0.1-0.4-0.3-0.8-0.6-1s-0.7-0.3-1.1-0.3
							c-0.5,0-1,0.2-1.4,0.5s-0.7,0.8-0.8,1.3c-0.1,0.3-0.1,0.9-0.1,1.8v2.5h-0.9L233.9,172.9L233.9,172.9z"/>
						<path class="st2" d="M247.3,177.4l0.7,0.4c-0.2,0.5-0.5,0.8-0.8,1.1s-0.7,0.5-1.1,0.7c-0.4,0.2-0.8,0.2-1.3,0.2
							c-1.1,0-2-0.4-2.6-1.1c-0.6-0.7-0.9-1.5-0.9-2.4s0.3-1.6,0.8-2.3c0.7-0.8,1.6-1.3,2.7-1.3c1.1,0,2.1,0.4,2.7,1.3
							c0.5,0.6,0.7,1.4,0.7,2.3h-6.1c0,0.8,0.3,1.4,0.7,1.9c0.5,0.5,1.1,0.7,1.8,0.7c0.3,0,0.7-0.1,1-0.2c0.3-0.1,0.6-0.3,0.8-0.5
							C246.7,178.2,247,177.9,247.3,177.4z M247.3,175.6c-0.1-0.5-0.3-0.8-0.5-1.1s-0.5-0.5-0.9-0.7s-0.7-0.3-1.1-0.3
							c-0.7,0-1.2,0.2-1.7,0.6c-0.3,0.3-0.6,0.8-0.8,1.4h5V175.6z"/>
						<path class="st2" d="M255.5,177.4l0.7,0.4c-0.2,0.5-0.5,0.8-0.8,1.1s-0.7,0.5-1.1,0.7c-0.4,0.2-0.8,0.2-1.3,0.2
							c-1.1,0-2-0.4-2.6-1.1c-0.6-0.7-0.9-1.5-0.9-2.4s0.3-1.6,0.8-2.3c0.7-0.8,1.6-1.3,2.7-1.3c1.1,0,2.1,0.4,2.7,1.3
							c0.5,0.6,0.7,1.4,0.7,2.3h-6.1c0,0.8,0.3,1.4,0.7,1.9c0.5,0.5,1.1,0.7,1.8,0.7c0.3,0,0.7-0.1,1-0.2c0.3-0.1,0.6-0.3,0.8-0.5
							C255,178.2,255.2,177.9,255.5,177.4z M255.5,175.6c-0.1-0.5-0.3-0.8-0.5-1.1s-0.5-0.5-0.9-0.7s-0.7-0.3-1.1-0.3
							c-0.7,0-1.2,0.2-1.7,0.6c-0.3,0.3-0.6,0.8-0.8,1.4h5V175.6z"/>
						<path class="st2" d="M257.7,172.9h0.9v1c0.3-0.4,0.5-0.7,0.8-0.9s0.6-0.3,0.9-0.3c0.2,0,0.5,0.1,0.8,0.2l-0.5,0.7
							c-0.2-0.1-0.3-0.1-0.5-0.1c-0.3,0-0.6,0.1-0.8,0.4c-0.3,0.2-0.5,0.6-0.6,1.1c-0.1,0.4-0.2,1.2-0.2,2.3v2.3h-0.9v-6.7H257.7z"
							/>
					</g>
				</g>
			</g>
		</g>
		<g>
			<path class="st2" d="M61.1,187.4c0.4,0,0.7-0.2,0.8-0.5l4.8-8.8c0.1,0,0.2,0,0.3,0c1.4,0,2.6-1.2,2.6-2.6c0-0.6-0.2-1.2-0.6-1.7
				s-1-0.8-1.7-0.9c-0.1,0-0.2,0-0.3,0c-1.4,0-2.6,1.2-2.6,2.6c0,0.6,0.2,1.2,0.6,1.7l-4.7,8.8l0,0c-0.1,0.1-0.1,0.3-0.1,0.4
				C60.1,187,60.6,187.4,61.1,187.4z M66.1,175.1L66.1,175.1c0.2-0.3,0.5-0.5,0.8-0.5c0.5,0,0.9,0.4,0.9,0.9c0,0.2,0,0.3-0.1,0.4
				l0,0c-0.2,0.3-0.5,0.5-0.8,0.5c-0.5,0-0.9-0.4-0.9-0.9C66,175.4,66.1,175.3,66.1,175.1z"/>
			<path class="st2" d="M92,170.2L92,170.2L86,159c0.1-0.3,0.1-0.5,0.1-0.8c0-1.4-1.2-2.6-2.6-2.6s-2.6,1.2-2.6,2.6
				c0,0.3,0.1,0.6,0.2,0.9l-6.3,11.6l-1,1.9l-8.7,16.1c-0.1,0-0.3,0-0.4,0c-1.1,0-2.1,0.7-2.4,1.7h-8c-0.2,0-0.4-0.2-0.4-0.4
				c0-0.1,0-0.1,0-0.2l1.1-2l0,0l9.1-16.9c0.1,0,0.2,0,0.3,0c1.4,0,2.6-1.2,2.6-2.6c0-0.6-0.2-1.2-0.6-1.7s-1-0.8-1.7-0.9
				c-0.1,0-0.2,0-0.3,0c-1.4,0-2.6,1.2-2.6,2.6c0,0.6,0.2,1.2,0.6,1.7l-10.1,18.7l0,0l0,0l-0.2,0.3l0,0c-0.1,0.3-0.2,0.6-0.2,0.9
				c0,1.3,1,2.3,2.3,2.3h8.1c0.4,0.9,1.3,1.6,2.4,1.6c1.4,0,2.6-1.2,2.6-2.6c0-0.6-0.2-1.2-0.6-1.6l9.2-17.1h14.6
				c0.9,0,1.7-0.7,1.7-1.7C92.2,170.7,92.2,170.4,92,170.2z M63.6,167.9l0.1-0.1l0,0c0.2-0.3,0.5-0.4,0.8-0.4c0.5,0,0.9,0.4,0.9,0.9
				c0,0.2,0,0.3-0.1,0.4c0,0,0,0.1-0.1,0.1c-0.2,0.3-0.5,0.4-0.8,0.4c-0.5,0-0.9-0.4-0.9-0.9C63.6,168.2,63.6,168.1,63.6,167.9z
				 M64.7,192.2c-0.5,0-0.9-0.4-0.9-0.9s0.4-0.9,0.9-0.9s0.9,0.4,0.9,0.9C65.7,191.8,65.3,192.2,64.7,192.2z M83.6,157.2
				c0.5,0,0.9,0.4,0.9,0.9c0,0.4-0.3,0.7-0.6,0.9c-0.1,0-0.2,0.1-0.3,0.1c-0.1,0-0.2,0-0.3,0c-0.4-0.1-0.7-0.5-0.7-0.9
				C82.6,157.7,83,157.2,83.6,157.2z M89.9,170.7H77l5.2-9.7l0,0l0.3-0.5c0.3,0.2,0.7,0.2,1.1,0.2s0.8-0.1,1.1-0.3L85,161l4.6,8.6
				l0.5,0.9c0,0,0,0,0,0.1C90.1,170.6,90,170.7,89.9,170.7z"/>
			<path class="st2" d="M115.1,188.7c-0.1,0-0.2,0-0.3,0l-23.8-44l-1.1-2l0,0l-2.1-3.9l-1.1-2l0,0l-0.8-1.5c0.1-0.3,0.2-0.6,0.2-1
				c0-1.4-1.2-2.6-2.6-2.6s-2.6,1.2-2.6,2.6c0,0.4,0.1,0.7,0.2,1l-12.3,22.8l0,0l-0.1,0.1c-0.1,0.1-0.1,0.3-0.1,0.4
				c0,0.5,0.4,0.9,0.9,0.9c0.4,0,0.7-0.2,0.8-0.5L82,137.3l0.4-0.7c0.3,0.1,0.6,0.2,0.9,0.2c0.4,0,0.7-0.1,1-0.2l0.4,0.7l0.7,1.4
				l1.1,2l2.1,3.9l1.1,2l23.2,42.9c-0.2,0.2-0.3,0.5-0.4,0.7h-3.4l-3.3-6.2c0.4-0.4,0.6-1,0.6-1.7c0-1.4-1.2-2.6-2.6-2.6
				c-0.1,0-0.2,0-0.3,0l-15.9-29.4l-1.1-2l-1.2-2.2c-0.4-0.7-1.1-1.2-2-1.2c-0.8,0-1.6,0.5-2,1.2c0,0,0,0,0,0.1l-1.2,2.2l-1.1,2
				l-2.3,4.2c-0.1,0-0.2,0-0.3,0c-1.4,0-2.6,1.2-2.6,2.6c0,0.6,0.2,1.2,0.6,1.7s1,0.8,1.7,0.9c0.1,0,0.2,0,0.3,0
				c1.4,0,2.6-1.2,2.6-2.6c0-0.6-0.2-1.2-0.6-1.7l1.7-3.2l1.1-2l0.7-1.4l1-1.9l0,0c0.1-0.1,0.2-0.2,0.3-0.2c0.1,0,0.3,0.1,0.3,0.2
				l0,0l1,1.9l0.7,1.4l1.1,2l15.3,28.3c-0.4,0.4-0.6,1-0.6,1.7c0,1.4,1.2,2.6,2.6,2.6c0.1,0,0.2,0,0.3,0l2.8,5.3h-3.9l0,0
				c-0.2,0-0.3-0.1-0.4-0.3l0,0l-1.1-2l-4-7.5c0.3-0.4,0.5-0.9,0.5-1.5c0-1.4-1.2-2.6-2.6-2.6c-1,0-1.9,0.6-2.4,1.5h-9.7
				c-0.5,0-0.9,0.4-0.9,0.9s0.4,0.9,0.9,0.9h9.6c0.3,1,1.3,1.8,2.4,1.8c0.2,0,0.3,0,0.5-0.1l4.7,8.7l0.3,0.6l0,0l0,0l0,0
				c0.4,0.7,1.2,1.2,2.1,1.2h9.4c0.4,1,1.3,1.6,2.4,1.6c1.4,0,2.6-1.2,2.6-2.6C117.6,189.9,116.5,188.7,115.1,188.7z M83.6,135.3
				c-0.5,0-0.9-0.4-0.9-0.9c0-0.4,0.3-0.8,0.7-0.9c0.1,0,0.2,0,0.2,0c0.1,0,0.1,0,0.2,0c0.4,0.1,0.8,0.5,0.8,0.9
				C84.5,134.9,84.1,135.3,83.6,135.3z M77.6,157.9L77.6,157.9c-0.2,0.3-0.5,0.5-0.8,0.5c-0.5,0-0.9-0.4-0.9-0.9
				c0-0.2,0-0.3,0.1-0.4V157l0,0c0.2-0.3,0.5-0.4,0.8-0.4c0.5,0,0.9,0.4,0.9,0.9C77.7,157.6,77.6,157.7,77.6,157.9z M104,183.5
				c-0.3,0-0.6-0.2-0.8-0.4c0,0,0-0.1-0.1-0.1c-0.1-0.1-0.1-0.3-0.1-0.4c0-0.5,0.4-0.9,0.9-0.9c0.4,0,0.7,0.2,0.8,0.5
				c0.1,0.1,0.1,0.3,0.1,0.5C104.9,183.1,104.5,183.5,104,183.5z M95.6,180.1c-0.1,0-0.3,0-0.4-0.1c0,0,0,0-0.1,0
				c-0.3-0.2-0.5-0.5-0.5-0.8c0-0.5,0.4-0.9,0.9-0.9s0.9,0.4,0.9,0.9C96.5,179.6,96.1,180.1,95.6,180.1z M115.1,192.3
				c-0.5,0-0.9-0.4-0.9-0.9s0.4-0.9,0.9-0.9c0.3,0,0.6,0.2,0.8,0.4c0,0,0,0.1,0.1,0.1c0.1,0.1,0.1,0.3,0.1,0.4
				C116,191.8,115.6,192.3,115.1,192.3z"/>
		</g>
	</g>
</g>
<path class="st4" d="M209.6,147.8H128c-1.5,0-2.8,1.3-2.8,2.8v24.5c0,1.5,1.3,2.8,2.8,2.8h81.5c1.5,0,2.8-1.3,2.8-2.8v-24.5
	C212.4,149,211.1,147.8,209.6,147.8z"/>
<g>
	<text transform="matrix(1 0 0 1 151.2131 166.1639)" class="st2 st5 st6">MORE</text>
</g>
</svg>
