<?xml version="1.0" encoding="utf-8"?>
<!-- Generator: Adobe Illustrator 22.1.0, SVG Export Plug-In . SVG Version: 6.00 Build 0)  -->
<svg version="1.1" id="submit_off" xmlns="http://www.w3.org/2000/svg" xmlns:xlink="http://www.w3.org/1999/xlink" x="0px" y="0px"
	 viewBox="0 0 337.6 325.7" style="enable-background:new 0 0 337.6 325.7;" xml:space="preserve">
<style type="text/css">
	.st0{fill:#F0F1F3;}
	.st1{fill:#152F4A;}
	.st2{font-family:'CenturyGothic';}
	.st3{font-size:12px;}
</style>
<path class="st0" d="M128.1,214.2c-1.5,0-2.8-1.3-2.8-2.8v-24.5c0-1.5,1.3-2.8,2.8-2.8h81.5c1.5,0,2.8,1.3,2.8,2.8v24.5
	c0,1.5-1.3,2.8-2.8,2.8H128.1z"/>
<path class="st1" d="M209.6,213.6H128c-1.2,0-2.2-1-2.2-2.2v-24.5c0-1.2,1-2.2,2.2-2.2h81.5c1.2,0,2.2,1,2.2,2.2v24.5
	C211.8,212.6,210.8,213.6,209.6,213.6z"/>
<text transform="matrix(1 0 0 1 151.2131 202.4869)" class="st0 st2 st3">MORE</text>
</svg>
