<?xml version="1.0" encoding="utf-8"?>
<!-- Generator: Adobe Illustrator 22.1.0, SVG Export Plug-In . SVG Version: 6.00 Build 0)  -->
<svg version="1.1" id="Capa_2" xmlns="http://www.w3.org/2000/svg" xmlns:xlink="http://www.w3.org/1999/xlink" x="0px" y="0px"
	 viewBox="0 0 337.6 325.7" style="enable-background:new 0 0 337.6 325.7;" xml:space="preserve">
<style type="text/css">
	.st0{fill:#808B9D;}
</style>
<g>
	<path class="st0" d="M153.6,183.3c-4.1-0.2-7.6-1.6-10.5-4.4c-1.9-1.8-3.3-4-4.1-6.6c2.4,0.4,4.7,0.4,7-0.3c-3.6-0.9-6.7-2.7-9-5.6
		c-2.4-2.9-3.5-6.3-3.5-10.1c2.2,1.2,4.6,1.9,7.1,2c-3.9-2.8-6.3-6.5-6.9-11.3c-0.4-3.5,0.3-6.7,2-9.8c8.5,10.1,19.3,15.6,32.5,16.5
		c-0.1-0.6-0.2-1.2-0.3-1.7c-0.3-2.7,0-5.3,1.1-7.8c2.1-5,5.8-8.2,11.1-9.4c5.7-1.3,10.7,0.3,14.8,4.4c0.1,0.1,0.2,0.2,0.4,0.1
		c3.4-0.7,6.5-1.9,9.5-3.6c0.1,0,0.2-0.1,0.3-0.1c0,0.7-1.5,3.5-2.6,4.9c-1.2,1.5-2.6,2.7-4.2,3.7c3.1-0.4,6-1.2,8.9-2.4
		c-0.1,0.2-0.2,0.3-0.2,0.3c-0.1,0.1-0.1,0.2-0.2,0.3c-1.6,2.3-3.5,4.4-5.7,6.2c-0.5,0.4-1,0.8-1.6,1.2c-0.1,0.1-0.1,0.2-0.1,0.3
		c0.1,2.5,0,5.1-0.4,7.6c-0.6,4.4-1.8,8.6-3.6,12.7c-1.8,4-4,7.6-6.8,10.9c-3.5,4.2-7.6,7.6-12.4,10.2c-3.9,2.1-8,3.6-12.4,4.4
		c-3.8,0.7-7.6,1-11.5,0.8c-5.4-0.3-10.6-1.5-15.5-3.6c-2.2-0.9-4.2-2-6.2-3.3c-0.1,0-0.1-0.1-0.2-0.1
		C139,190.7,146.8,188.6,153.6,183.3z"/>
	<path class="st0" d="M168.8,225c-34.3,0-62.2-27.9-62.2-62.2s27.9-62.2,62.2-62.2s62.2,27.9,62.2,62.2S203.1,225,168.8,225z
		 M168.8,106.7c-31,0-56.2,25.2-56.2,56.2s25.2,56.2,56.2,56.2s56.2-25.2,56.2-56.2S199.8,106.7,168.8,106.7z"/>
</g>
</svg>
