<?xml version="1.0" encoding="utf-8"?>
<!-- Generator: Adobe Illustrator 22.1.0, SVG Export Plug-In . SVG Version: 6.00 Build 0)  -->
<svg version="1.1" id="submit_off" xmlns="http://www.w3.org/2000/svg" xmlns:xlink="http://www.w3.org/1999/xlink" x="0px" y="0px"
	 viewBox="0 0 485 136.7" style="enable-background:new 0 0 485 136.7;" xml:space="preserve">
<style type="text/css">
	.st0{fill:#152F4A;}
	.st1{fill:#F0F1F3;}
</style>
<rect x="13" y="40" class="st0" width="460.9" height="67"/>
<g>
	<path class="st1" d="M465.4,53.2c-0.4-0.8-1.3-1.3-2.2-1.3h-26.5c-0.1-0.2-0.2-0.5-0.3-0.7c-1.8-3.3-6-4.6-9.3-2.7
		c-1.5,0.8-2.6,2.1-3.2,3.5c-0.6,1.6-0.7,3.3,0,5c0.1,0.2,0.2,0.5,0.3,0.7c1.8,3.3,6,4.6,9.3,2.7c1.5-0.8,2.6-2.1,3.2-3.5h26.4
		c0.1,0,0.1,0,0.2,0c0.4,0,0.7-0.1,1.2-0.3C465.7,55.9,466.1,54.3,465.4,53.2z M430.4,56.8L430.4,56.8c-0.9,0-1.8-0.5-2.2-1.3
		c-0.7-1.2-0.2-2.7,1-3.4c0.3-0.2,0.7-0.3,1.2-0.3h0.1c0.9,0,1.7,0.5,2.2,1.3c0.7,1.2,0.2,2.7-1,3.4
		C431.2,56.7,430.8,56.8,430.4,56.8z"/>
	<path class="st1" d="M424.8,71.7c0.3,0.2,0.7,0.3,1.2,0.3c0.1,0,0.1,0,0.2,0h26.4c0.6,1.4,1.7,2.7,3.2,3.5c3.3,1.8,7.5,0.6,9.3-2.7
		c0.2-0.2,0.2-0.5,0.3-0.7c0.7-1.7,0.6-3.4,0-5c-0.6-1.4-1.7-2.7-3.2-3.5c-3.3-1.8-7.5-0.6-9.3,2.7c-0.2,0.2-0.2,0.5-0.3,0.7h-26.5
		c-0.9,0-1.7,0.5-2.2,1.3C423.2,69.5,423.6,71,424.8,71.7z M457.7,71.7c-1.2-0.7-1.7-2.2-1-3.4c0.4-0.8,1.2-1.3,2.2-1.3h0.1
		c0.4,0,0.8,0.1,1.2,0.3c1.2,0.7,1.7,2.2,1,3.4c-0.4,0.8-1.3,1.3-2.2,1.3c0,0,0,0-0.1,0C458.5,71.9,458.1,71.8,457.7,71.7z"/>
	<path class="st1" d="M465.4,83.5c-0.4-0.8-1.3-1.3-2.2-1.3h-26.5c-0.1-0.2-0.2-0.5-0.3-0.7c-1.8-3.3-6-4.6-9.3-2.7
		c-1.5,0.8-2.6,2.1-3.2,3.5c-0.6,1.6-0.7,3.3,0,5c0.1,0.2,0.2,0.5,0.3,0.7c1.8,3.3,6,4.6,9.3,2.7c1.5-0.8,2.6-2.1,3.2-3.5h26.4
		c0.1,0,0.1,0,0.2,0c0.4,0,0.7-0.1,1.2-0.3C465.7,86.2,466.1,84.6,465.4,83.5z M430.4,87.1L430.4,87.1c-0.9,0-1.8-0.5-2.2-1.3
		c-0.7-1.2-0.2-2.7,1-3.4c0.3-0.2,0.7-0.3,1.2-0.3h0.1c0.9,0,1.7,0.5,2.2,1.3c0.7,1.2,0.2,2.7-1,3.4C431.2,87,430.8,87.1,430.4,87.1
		z"/>
</g>
</svg>
