<?xml version="1.0" encoding="utf-8"?>
<!-- Generator: Adobe Illustrator 22.1.0, SVG Export Plug-In . SVG Version: 6.00 Build 0)  -->
<svg version="1.1" id="submit_off" xmlns="http://www.w3.org/2000/svg" xmlns:xlink="http://www.w3.org/1999/xlink" x="0px" y="0px"
	 viewBox="0 0 337.6 325.7" style="enable-background:new 0 0 337.6 325.7;" xml:space="preserve">
<style type="text/css">
	.st0{fill:#152F4A;}
	.st1{fill:#F0F1F3;}
</style>
<rect x="4.8" y="57.9" class="st0" width="328" height="210"/>
<path class="st1" d="M190.1,67.7c-0.3-0.7-1.1-1.1-1.8-1.1h-21.6c-0.1-0.2-0.2-0.4-0.3-0.6c-1.5-2.7-4.9-3.7-7.6-2.2
	c-1.2,0.7-2.1,1.7-2.6,2.8c-0.5,1.3-0.5,2.7,0,4.1c0.1,0.2,0.2,0.4,0.3,0.6c1.5,2.7,4.9,3.7,7.6,2.2c1.2-0.7,2.1-1.7,2.6-2.8h21.6
	c0.1,0,0.1,0,0.1,0c0.3,0,0.6-0.1,0.9-0.3C190.3,69.9,190.6,68.6,190.1,67.7z M161.4,70.7L161.4,70.7c-0.7,0-1.5-0.4-1.8-1.1
	c-0.5-1-0.1-2.2,0.8-2.8c0.3-0.1,0.6-0.3,0.9-0.3h0.1c0.7,0,1.4,0.4,1.8,1.1c0.5,1,0.1,2.2-0.8,2.8
	C162.1,70.6,161.8,70.7,161.4,70.7z"/>
<path class="st1" d="M156.9,82.8c0.3,0.1,0.6,0.3,0.9,0.3c0.1,0,0.1,0,0.1,0h21.6c0.5,1.2,1.4,2.2,2.6,2.8c2.7,1.5,6.1,0.5,7.6-2.2
	c0.1-0.2,0.2-0.4,0.3-0.6c0.5-1.4,0.5-2.8,0-4.1c-0.5-1.2-1.4-2.2-2.6-2.8c-2.7-1.5-6.1-0.5-7.6,2.2c-0.1,0.2-0.2,0.4-0.3,0.6h-21.6
	c-0.7,0-1.4,0.4-1.8,1.1C155.5,81,156,82.3,156.9,82.8z M183.8,82.8c-1-0.5-1.4-1.8-0.8-2.8c0.3-0.7,1-1.1,1.8-1.1h0.1
	c0.3,0,0.7,0.1,0.9,0.3c1,0.5,1.4,1.8,0.8,2.8c-0.3,0.7-1.1,1.1-1.8,1.1c0,0,0,0-0.1,0C184.4,83,184.1,82.9,183.8,82.8z"/>
<path class="st1" d="M190.1,92.4c-0.3-0.7-1.1-1.1-1.8-1.1h-21.6c-0.1-0.2-0.2-0.4-0.3-0.6c-1.5-2.7-4.9-3.7-7.6-2.2
	c-1.2,0.7-2.1,1.7-2.6,2.8c-0.5,1.3-0.5,2.7,0,4.1c0.1,0.2,0.2,0.4,0.3,0.6c1.5,2.7,4.9,3.7,7.6,2.2c1.2-0.7,2.1-1.7,2.6-2.8h21.6
	c0.1,0,0.1,0,0.1,0c0.3,0,0.6-0.1,0.9-0.3C190.3,94.7,190.6,93.4,190.1,92.4z M161.4,95.4L161.4,95.4c-0.7,0-1.5-0.4-1.8-1.1
	c-0.5-1-0.1-2.2,0.8-2.8c0.3-0.1,0.6-0.3,0.9-0.3h0.1c0.7,0,1.4,0.4,1.8,1.1c0.5,1,0.1,2.2-0.8,2.8
	C162.1,95.3,161.8,95.4,161.4,95.4z"/>
</svg>
